<svg id="FIBONACCI" xmlns="http://www.w3.org/2000/svg" viewBox="0 0 1276.43 480.96"><defs><style>.cls-1{fill:#004861;}.cls-2{fill:#0a607e;}.cls-3{fill:#919396;}</style></defs><title>Artboard 1</title><rect class="cls-1" x="500.36" y="167.2" width="99.99" height="50.8" rx="3" ry="3"/><path class="cls-2" d="M597.35,131.14a3,3,0,0,0,3-3V79.07a3,3,0,0,0-3-3H441.75a3,3,0,0,0-3,3V305.14a3,3,0,0,0,3,3h155.6a3,3,0,0,0,3-3V255.75a3,3,0,0,0-3-3H498.82a3,3,0,0,1-3-3V134.14a3,3,0,0,1,3-3Z"/><rect class="cls-2" x="94.82" y="76.07" width="56.2" height="232.07" rx="3" ry="3"/><path class="cls-1" d="M187.58,76.07h-32v54.74h32c35.41-.33,35.41,57.69,0,57.36h-32v52.12h32.34c56.06,0,84.57-41,84.57-82.27C272.48,117,244.29,76.07,187.58,76.07Z"/><rect class="cls-2" x="277.74" y="76.07" width="56.78" height="232.07" rx="3" ry="3"/><rect class="cls-1" x="339.06" y="250.13" width="92.08" height="58.02" rx="3" ry="3"/><path class="cls-1" d="M1066.06,211.65l49.07-45.92c-4.5-1-9.06-2-13.62-2.79-18-3.94-30.15-10.49-30.81-21.64,1-26.88,40.94-29.36,69.46.66l9.35-8.4,26-24.28c-23.82-28.71-50.85-36.49-78.86-36.49-42.61,0-83.92,23.93-83.92,69.49C1012.68,179.23,1036.46,201.78,1066.06,211.65Z"/><path class="cls-2" d="M1120.39,167l-49.33,46.15a113.67,113.67,0,0,0,13.08,2.85c19,2.63,40.32,10.17,39.66,23.28-1.63,24.86-52.58,23.6-75.91-4.44l-37.09,34.7c21.63,27.79,51.09,41.85,78.91,41.85,42.62,0,89.82-24.59,91.78-69.49C1183.71,193.66,1154.47,175.91,1120.39,167Z"/><rect class="cls-2" x="609.16" y="76.07" width="54.55" height="232.07" rx="3" ry="3"/><path class="cls-1" d="M734.13,192.06a12.63,12.63,0,0,0-1.57-5.56L669.81,84.12c-.86-1.41-1.57-1.21-1.57.44V189.32a13.36,13.36,0,0,0,1.5,5.6l62.89,109.63c.82,1.43,1.5,1.25,1.5-.4Z"/><rect class="cls-2" x="738.67" y="76.07" width="55.35" height="232.07" rx="3" ry="3"/><path class="cls-1" d="M906.51,222.15a11.35,11.35,0,0,0,0-5.73L863.19,78.93a4.37,4.37,0,0,0-3.9-2.86H802.35a2,2,0,0,0-2,2.82l79.71,221.3c.56,1.55,1.42,1.54,1.91,0Z"/><path class="cls-2" d="M960.35,76.07a4.37,4.37,0,0,0-3.9,2.86L920.32,192.71c-.5,1.57-.88,2.87-.85,2.88s-.34,1.3-.84,2.88L885.05,305.31a2.08,2.08,0,0,0,2.1,2.86H933.7a4.6,4.6,0,0,0,4-2.82l81.56-226.46a2,2,0,0,0-2-2.82Z"/><path class="cls-3" d="M143.26,381.67c.21,10.72-5.62,21.56-18.14,21.56H113V361.07h12.11C137.23,361.07,143.06,371.31,143.26,381.67Zm-27.49-17.53v36h9.35c10.63,0,15.53-9.4,15.38-18.43-.15-8.79-5.06-17.53-15.38-17.53Z"/><path class="cls-3" d="M245.1,403.23l-3.93-10.36H219.81l-3.89,10.36h-3l16-42.16h3l16,42.16Zm-5-13.37-9.61-25.66-9.61,25.66Z"/><path class="cls-3" d="M324.1,364H311.17v-2.89h28.62V364H326.86v39.21H324.1Z"/><path class="cls-3" d="M440.61,403.23l-3.94-10.36H415.31l-3.88,10.36h-3l16.05-42.16h3l16.05,42.16Zm-5-13.37L426,364.2l-9.61,25.66Z"/><path class="cls-3" d="M530.39,408.17l-19.12-50.65H514L533,408.17Z"/><path class="cls-3" d="M627.37,369.2c-2.6-4.94-6.8-5.66-10.83-5.72-4.2,0-10.84,1.81-10.84,8.55,0,5.36,4.91,6.63,10.94,8,6.9,1.57,14.05,3,14.05,12.11-.05,9.51-8.17,11.8-14.15,11.8-5.57,0-11.91-2.71-14.67-9.15l2.45-1.45c2.2,5.12,7.82,7.65,12.22,7.65s11.39-1.45,11.39-8.91c.05-6.33-5.87-7.71-11.75-9-6.54-1.5-13.24-3.07-13.24-10.84-.15-8.91,7.72-11.68,13.6-11.68,5.11,0,9.55,1,13.08,7.17Z"/><path class="cls-3" d="M713,386.37l-14-25.24v-.06h3.22l12.11,22.16,12.16-22.16h3.22v.06l-14,25.24v16.86H713Z"/><path class="cls-3" d="M825.07,369.2c-2.6-4.94-6.79-5.66-10.83-5.72-4.19,0-10.83,1.81-10.83,8.55,0,5.36,4.9,6.63,10.93,8,6.9,1.57,14.06,3,14.06,12.11,0,9.51-8.18,11.8-14.16,11.8-5.57,0-11.91-2.71-14.67-9.15l2.45-1.45c2.2,5.12,7.82,7.65,12.22,7.65s11.4-1.45,11.4-8.91c.05-6.33-5.88-7.71-11.76-9-6.54-1.5-13.24-3.07-13.24-10.84-.15-8.91,7.72-11.68,13.6-11.68,5.11,0,9.56,1,13.08,7.17Z"/><path class="cls-3" d="M911.53,364H898.6v-2.89h28.62V364H914.29v39.21h-2.76Z"/><path class="cls-3" d="M1002.28,380.53h21v2.94h-21V400.1h22.59v3.13h-25.3V361.07h24.69v3.07h-22Z"/><path class="cls-3" d="M1129.32,365.77l-13.7,24.69h-.92l-13.8-24.69v37.46h-2.76V361.07h3.28l13.69,24.57,13.54-24.57H1132v42.16h-2.71Z"/></svg>