<svg id="FIBONACCI" xmlns="http://www.w3.org/2000/svg" xmlns:xlink="http://www.w3.org/1999/xlink" viewBox="0 0 600 600"><defs><style>.cls-1{fill:none;stroke:#0a607e;stroke-miterlimit:10;stroke-width:2px;}.cls-2{clip-path:url(#clip-path);}.cls-3{fill:#0a607e;}.cls-4{fill:#fff;}.cls-5{fill:#004961;}.cls-6{fill:#231f20;}</style><clipPath id="clip-path"><circle class="cls-1" cx="300" cy="300" r="290"/></clipPath></defs><title>plenvsDataSystemAvatar</title><g class="cls-2"><rect class="cls-3" width="600" height="600"/><rect class="cls-4" x="3" y="45.52" width="551.56" height="736.46"/><path class="cls-3" d="M560.77,38.8H88.86L0,34-38.3,782l599.07,7.52ZM273.29,51.19a276.68,276.68,0,0,1,275.59,275.1H273.29ZM100.71,211.65A171.52,171.52,0,0,1,270.09,51.2V220H100.18Zm106.78,34.83c.87-12.4,10.22-22.31,22.61-23.06v23.06Zm22.61,3.19V260h-9.63V249.67Zm-12.82,0v9.74a10.93,10.93,0,0,1-9.78-9.74Zm52.29,13.54c-1.05,33.52-26.75,60.73-59.88,63.08h-2.76V263.21ZM233.29,260v-36.6c19.87.85,35.22,16.76,36.27,36.6ZM100.18,223.26H203.74v103h-4.83a104.85,104.85,0,0,1-98.2-95.72ZM513.55,502.32A448.1,448.1,0,0,1,417.13,645.4C375.8,686.72,297.4,685.53,246.67,657c-274-154.14-242-327.52-242-327.52H548.89A447.71,447.71,0,0,1,513.55,502.32Z"/><path class="cls-5" d="M245.18,385.31h37.93a1.44,1.44,0,0,1,1.44,1.44V404.6a1.44,1.44,0,0,1-1.44,1.44H245.19a1.44,1.44,0,0,1-1.44-1.44V386.74A1.43,1.43,0,0,1,245.18,385.31Z"/><path class="cls-3" d="M240.46,348.13H220.05a1.43,1.43,0,0,0-1.43,1.43v91.82a1.44,1.44,0,0,0,1.43,1.44h63.06a1.45,1.45,0,0,0,1.44-1.44V421.65a1.44,1.44,0,0,0-1.44-1.43H243.33a1.44,1.44,0,0,1-1.43-1.44V372a1.43,1.43,0,0,1,1.43-1.43h39.78a1.45,1.45,0,0,0,1.44-1.44v-19.6a1.44,1.44,0,0,0-1.44-1.43H240.46Z"/><rect class="cls-3" x="78.29" y="348.13" width="22.93" height="94.69" rx="1.43" ry="1.43"/><path class="cls-5" d="M116.14,348.13H103.08v22.33h13.06c14.44-.13,14.44,23.54,0,23.41H103.08v21.26h13.2c22.86,0,34.5-16.71,34.5-33.56S139.28,348.13,116.14,348.13Z"/><path class="cls-3" d="M154.36,348.13h20.3a1.44,1.44,0,0,1,1.44,1.44v91.82a1.44,1.44,0,0,1-1.44,1.44h-20.3a1.43,1.43,0,0,1-1.43-1.43V349.56A1.43,1.43,0,0,1,154.36,348.13Z"/><path class="cls-5" d="M214.08,419.14H179.37a1.44,1.44,0,0,0-1.43,1.44v20.8a1.44,1.44,0,0,0,1.43,1.44h34.71a1.44,1.44,0,0,0,1.43-1.44v-20.8A1.44,1.44,0,0,0,214.08,419.14Z"/><path class="cls-3" d="M474.56,403.44l20-18.73c-1.84-.43-3.7-.8-5.56-1.14-7.35-1.61-12.3-4.28-12.57-8.82.41-11,16.71-12,28.34.26l3.82-3.42,10.58-9.91C509.48,350,498.45,346.79,487,346.79c-17.39,0-34.24,9.77-34.24,28.36C452.78,390.22,462.48,399.42,474.56,403.44Z"/><path class="cls-5" d="M496.72,385.24,476.6,404.07a47.88,47.88,0,0,0,5.34,1.17c7.75,1.07,16.45,4.14,16.18,9.49-.67,10.15-21.46,9.63-31-1.81L452,427.08c8.83,11.34,20.85,17.07,32.2,17.07,17.39,0,36.64-10,37.45-28.35C522.56,396.11,510.63,388.87,496.72,385.24Z"/><rect class="cls-3" x="288.14" y="348.13" width="22.26" height="94.69" rx="1.43" ry="1.43"/><path class="cls-5" d="M338.42,441.17c.39.68.71.59.71-.2V395.66a6,6,0,0,0-.75-2.65L313,351.59c-.41-.67-.75-.58-.75.21v42.32a6.4,6.4,0,0,0,.71,2.68Z"/><rect class="cls-3" x="340.98" y="348.13" width="22.58" height="94.69" rx="1.43" ry="1.43"/><path class="cls-5" d="M398.6,439.37c.27.75.68.74.92,0l9.88-31.43a5.53,5.53,0,0,0,0-2.74L391.85,349.5a2.1,2.1,0,0,0-1.87-1.37H367.17a1,1,0,0,0-.95,1.35Z"/><path class="cls-3" d="M401.77,442.83h18.58a2.21,2.21,0,0,0,1.92-1.35l33.13-92a1,1,0,0,0-.95-1.35H431.64a2.1,2.1,0,0,0-1.87,1.37l-14.61,46c-.24.75-.42,1.37-.41,1.37s-.17.63-.4,1.38l-13.58,43.19A1,1,0,0,0,401.77,442.83Z"/><path class="cls-6" d="M295.81,288.2h-7v23.13h7c7.29,0,10.68-5.95,10.56-11.83C306.25,293.82,302.86,288.2,295.81,288.2Zm0,21.41h-5.44V289.89h5.44c6,0,8.86,4.79,8.95,9.61S302,309.61,295.81,309.61Z"/><path class="cls-6" d="M321.36,288.2,312,311.33h1.72l2.26-5.68h12.43l2.29,5.68h1.72l-9.33-23.13ZM316.64,304l5.59-14.07L327.82,304Z"/><polygon class="cls-6" points="334.28 289.82 341.8 289.82 341.8 311.33 343.41 311.33 343.41 289.82 350.93 289.82 350.93 288.23 334.28 288.23 334.28 289.82"/><path class="cls-6" d="M365.33,288.2,356,311.33h1.73l2.26-5.68H372.4l2.29,5.68h1.73l-9.34-23.13ZM360.6,304l5.59-14.07L371.78,304Z"/><polygon class="cls-6" points="380.92 286.25 392.04 314.04 393.58 314.04 382.49 286.25 380.92 286.25"/><path class="cls-6" d="M407.33,298.58c-3.51-.73-6.36-1.42-6.36-4.37,0-3.7,3.86-4.69,6.3-4.69s4.79.43,6.3,3.14l1.31-.86c-2.05-3.4-4.64-3.93-7.61-3.93-3.42,0-8,1.52-7.91,6.41,0,4.26,3.9,5.12,7.7,6,3.42.72,6.87,1.48,6.84,4.95,0,4.1-4.07,4.89-6.63,4.89s-5.83-1.38-7.1-4.19l-1.43.79c1.6,3.54,5.29,5,8.53,5,3.48,0,8.2-1.25,8.24-6.47C415.51,300.23,411.34,299.43,407.33,298.58Z"/><polygon class="cls-6" points="429.28 300.36 422.24 288.2 420.36 288.2 420.36 288.23 428.48 302.08 428.48 311.33 430.08 311.33 430.08 302.08 438.23 288.23 438.23 288.2 436.36 288.2 429.28 300.36"/><path class="cls-6" d="M452.57,298.58c-3.51-.73-6.36-1.42-6.36-4.37,0-3.7,3.86-4.69,6.3-4.69s4.79.43,6.3,3.14l1.31-.86c-2.05-3.4-4.64-3.93-7.61-3.93-3.42,0-8,1.52-7.9,6.41,0,4.26,3.89,5.12,7.69,6,3.42.72,6.87,1.48,6.84,4.95,0,4.1-4.07,4.89-6.63,4.89s-5.83-1.38-7.1-4.19l-1.43.79c1.6,3.54,5.29,5,8.53,5,3.48,0,8.21-1.25,8.24-6.47C460.75,300.23,456.58,299.44,452.57,298.58Z"/><polygon class="cls-6" points="466.71 289.82 474.23 289.82 474.23 311.33 475.83 311.33 475.83 289.82 483.35 289.82 483.35 288.23 466.71 288.23 466.71 289.82"/><polygon class="cls-6" points="492.13 300.49 504.32 300.49 504.32 298.87 492.13 298.87 492.13 289.89 504.92 289.89 504.92 288.2 490.56 288.2 490.56 311.33 505.27 311.33 505.27 309.61 492.13 309.61 492.13 300.49"/><path class="cls-6" d="M530.76,288.2l-7.87,13.48-8-13.48H513v23.13h1.6V290.78l8,13.55h.54l8-13.55v20.55h1.58V288.2Z"/></g><circle class="cls-1" cx="300" cy="300" r="290"/></svg>