<?xml version="1.0" encoding="utf-8"?>
<!-- Generator: Adobe Illustrator 22.1.0, SVG Export Plug-In . SVG Version: 6.00 Build 0)  -->
<svg version="1.1" id="Camada_1" xmlns="http://www.w3.org/2000/svg" xmlns:xlink="http://www.w3.org/1999/xlink" x="0px" y="0px"
	 viewBox="0 0 332.2 149.8" style="enable-background:new 0 0 332.2 149.8;" xml:space="preserve">
<style type="text/css">
	.st0{fill:#919396;}
	.st1{fill:#004961;}
	.st2{fill:#0A607E;}
</style>
<g>
	<path class="st0" d="M80.7,42.9H40.5v64l40.2,0V42.9z M56.2,43.9c6.3,0,12.2,2.5,16.6,6.9c4.4,4.4,6.9,10.3,6.9,16.6H56.2V43.9z
		 M41.5,57.6c0.2-3.6,1.7-6.9,4.3-9.4c2.7-2.7,6.3-4.2,10.2-4.3l0,14.4H41.5L41.5,57.6z M50.6,60.6c0.1-1.1,0.9-1.9,1.9-2v2H50.6z
		 M52.5,60.9v0.9h-0.8v-0.9H52.5z M51.4,60.9v0.8c-0.5-0.1-0.8-0.4-0.8-0.8H51.4z M55.9,62c-0.1,2.9-2.3,5.2-5.1,5.4h-0.2V62H55.9z
		 M52.8,61.7v-3.1c1.7,0.1,3,1.4,3.1,3.1H52.8z M41.5,58.6h8.8v8.8h-0.4c-4.4-0.3-8-3.8-8.4-8.2L41.5,58.6z M76.7,82.4
		c-1.9,4.6-4.7,8.7-8.2,12.2c-3.5,3.5-7.6,6.3-12.2,8.2c-4.7,2-9.7,3-14.8,3V67.7h38.2C79.7,72.8,78.7,77.7,76.7,82.4z"/>
	<g>
		<g>
			<g>
				<path class="st1" d="M184.3,62c0-0.3-0.2-0.6-0.6-0.6h-17.4c-0.3,0-0.6,0.2-0.6,0.6v8.3c0,0.3,0.2,0.6,0.6,0.6h17.4
					c0.3,0,0.6-0.2,0.6-0.6V62z"/>
			</g>
			<g>
				<path class="st2" d="M183.8,54.8c0.3,0,0.6-0.2,0.6-0.6v-9.1c0-0.3-0.2-0.6-0.6-0.6h-18.2c-0.3,0-0.8,0-1.1,0H164
					c-0.3,0-0.8,0-1.1,0h-7.9c-0.3,0-0.6,0.2-0.6,0.6v41.8c0,0.3,0.2,0.6,0.6,0.6h7.9c0.3,0,0.8,0,1.1,0h0.5c0.3,0,0.8,0,1.1,0h18.2
					c0.3,0,0.6-0.2,0.6-0.6v-9.1c0-0.3-0.2-0.6-0.6-0.6h-18.2c-0.3,0-0.6-0.2-0.6-0.6V55.3c0-0.3,0.2-0.6,0.6-0.6H183.8z"/>
			</g>
		</g>
		<g>
			<g>
				<path class="st2" d="M101.4,45.1c0-0.3-0.2-0.6-0.6-0.6h-9.3c-0.3,0-0.6,0.2-0.6,0.6v41.8c0,0.3,0.2,0.6,0.6,0.6h9.3
					c0.3,0,0.6-0.2,0.6-0.6V45.1z"/>
			</g>
			<path class="st1" d="M108.1,44.6h-5.9v10.1h5.9c6.5-0.1,6.5,10.7,0,10.6h-5.9v9.6h6c10.4,0,15.6-7.6,15.6-15.2
				C123.8,52.2,118.6,44.6,108.1,44.6z"/>
		</g>
		<g>
			<g>
				<path class="st2" d="M135.2,45.1c0-0.3-0.2-0.6-0.6-0.6h-9.4c-0.3,0-0.6,0.2-0.6,0.6v41.8c0,0.3,0.2,0.6,0.6,0.6h9.4
					c0.3,0,0.6-0.2,0.6-0.6V45.1z"/>
			</g>
			<g>
				<path class="st1" d="M136.6,76.7c-0.3,0-0.6,0.2-0.6,0.6v9.6c0,0.3,0.2,0.6,0.6,0.6h15.9c0.3,0,0.6-0.2,0.6-0.6v-9.6
					c0-0.3-0.2-0.6-0.6-0.6H136.6z"/>
			</g>
		</g>
		<g>
			<path class="st1" d="M270.4,69.6l9.1-8.5c-0.8-0.2-1.7-0.4-2.5-0.5c-3.3-0.7-5.6-1.9-5.7-4c0.2-5,7.6-5.4,12.8,0.1l1.7-1.6
				l4.8-4.5c-4.4-5.3-9.4-6.7-14.6-6.7c-7.9,0-15.5,4.4-15.5,12.8C260.5,63.6,264.9,67.8,270.4,69.6z"/>
			<path class="st2" d="M280.4,61.4l-9.1,8.5c0.8,0.2,1.6,0.4,2.4,0.5c3.5,0.5,7.4,1.9,7.3,4.3c-0.3,4.6-9.7,4.4-14-0.8l-6.8,6.4
				c4,5.1,9.4,7.7,14.6,7.7c7.9,0,16.6-4.5,17-12.8C292.1,66.3,286.7,63,280.4,61.4z"/>
		</g>
		<g>
			<g>
				<path class="st2" d="M196.1,45.1c0-0.3-0.2-0.6-0.6-0.6h-9c-0.3,0-0.6,0.2-0.6,0.6v41.8c0,0.3,0.2,0.6,0.6,0.6h9
					c0.3,0,0.6-0.2,0.6-0.6V45.1z"/>
			</g>
			<g>
				<path class="st1" d="M209.1,66c0-0.3-0.1-0.8-0.3-1l-11.6-18.9c-0.2-0.3-0.3-0.2-0.3,0.1v19.3c0,0.3,0.1,0.8,0.3,1l11.6,20.2
					c0.2,0.3,0.3,0.2,0.3-0.1L209.1,66L209.1,66z"/>
			</g>
			<g>
				<path class="st2" d="M210.5,44.6c-0.3,0-0.6,0.2-0.6,0.6v41.8c0,0.3,0.2,0.6,0.6,0.6h9.1c0.3,0,0.6-0.2,0.6-0.6V45.1
					c0-0.3-0.2-0.6-0.6-0.6H210.5z"/>
			</g>
		</g>
		<g>
			<path class="st1" d="M240.9,71.6c0.1-0.3,0.1-0.8,0-1.1l-8-25.4c-0.1-0.3-0.4-0.5-0.7-0.5h-10.5c-0.3,0-0.5,0.2-0.4,0.5L236,86
				c0.1,0.3,0.3,0.3,0.4,0L240.9,71.6z"/>
		</g>
		<g>
			<path class="st2" d="M250.8,44.6c-0.3,0-0.6,0.2-0.7,0.5l-6.7,21c-0.1,0.3-0.2,0.5-0.2,0.5c0,0-0.1,0.2-0.2,0.5l-6.2,19.7
				c-0.1,0.3,0.1,0.5,0.4,0.5h8.6c0.3,0,0.6-0.2,0.7-0.5l15.1-41.8c0.1-0.3-0.1-0.5-0.4-0.5L250.8,44.6L250.8,44.6z"/>
		</g>
	</g>
	<g>
		<path class="st0" d="M99.9,101c0,2-1,4-3.4,4c-0.7,0-1.5,0-2.2,0v-7.8c0.7,0,1.5,0,2.2,0C98.8,97.2,99.9,99.1,99.9,101z
			 M94.8,97.8v6.6h1.7c2,0,2.9-1.7,2.8-3.4c0-1.6-0.9-3.2-2.8-3.2H94.8z"/>
		<path class="st0" d="M118.7,105l-0.7-1.9h-3.9l-0.7,1.9h-0.5l3-7.8h0.6l3,7.8H118.7z M117.8,102.5l-1.8-4.7l-1.8,4.7H117.8z"/>
		<path class="st0" d="M133.3,97.8h-2.4v-0.5h5.3v0.5h-2.4v7.2h-0.5L133.3,97.8L133.3,97.8z"/>
		<path class="st0" d="M154.8,105l-0.7-1.9h-3.9l-0.7,1.9h-0.5l3-7.8h0.6l3,7.8H154.8z M153.9,102.5l-1.8-4.7l-1.8,4.7H153.9z"/>
		<path class="st0" d="M171.4,105.9l-3.5-9.4h0.5l3.5,9.4L171.4,105.9L171.4,105.9z"/>
		<path class="st0" d="M189.3,98.7c-0.5-0.9-1.3-1-2-1.1c-0.8,0-2,0.3-2,1.6c0,1,0.9,1.2,2,1.5c1.3,0.3,2.6,0.6,2.6,2.2
			c0,1.8-1.5,2.2-2.6,2.2c-1,0-2.2-0.5-2.7-1.7l0.5-0.3c0.4,0.9,1.4,1.4,2.3,1.4c0.8,0,2.1-0.3,2.1-1.6c0-1.2-1.1-1.4-2.2-1.7
			c-1.2-0.3-2.4-0.6-2.4-2c0-1.6,1.4-2.2,2.5-2.2c0.9,0,1.8,0.2,2.4,1.3L189.3,98.7z"/>
		<path class="st0" d="M205.1,101.9l-2.6-4.7v0h0.6l2.2,4.1l2.2-4.1h0.6v0l-2.6,4.7v3.1h-0.5V101.9z"/>
		<path class="st0" d="M225.9,98.7c-0.5-0.9-1.3-1-2-1.1c-0.8,0-2,0.3-2,1.6c0,1,0.9,1.2,2,1.5c1.3,0.3,2.6,0.6,2.6,2.2
			c0,1.8-1.5,2.2-2.6,2.2c-1,0-2.2-0.5-2.7-1.7l0.5-0.3c0.4,0.9,1.4,1.4,2.3,1.4c0.8,0,2.1-0.3,2.1-1.6c0-1.2-1.1-1.4-2.2-1.7
			c-1.2-0.3-2.4-0.6-2.4-2c0-1.6,1.4-2.2,2.5-2.2c0.9,0,1.8,0.2,2.4,1.3L225.9,98.7z"/>
		<path class="st0" d="M241.8,97.8h-2.4v-0.5h5.3v0.5h-2.4v7.2h-0.5L241.8,97.8L241.8,97.8z"/>
		<path class="st0" d="M258.6,100.8h3.9v0.5h-3.9v3.1h4.2v0.6h-4.7v-7.8h4.6v0.6h-4.1V100.8z"/>
		<path class="st0" d="M282.1,98.1l-2.5,4.6h-0.2l-2.5-4.6v6.9h-0.5v-7.8c0.2,0,0.4,0,0.6,0l2.5,4.5l2.5-4.5h0.6v7.8h-0.5
			L282.1,98.1L282.1,98.1z"/>
	</g>
</g>
</svg>
