<svg id="Camada_1" data-name="Camada 1" xmlns="http://www.w3.org/2000/svg" xmlns:xlink="http://www.w3.org/1999/xlink" viewBox="0 0 353.72 562.69"><defs><style>.cls-1{fill:none;}.cls-2{clip-path:url(#clip-path);}.cls-3{fill:#08607e;}.cls-4{fill:#004962;}.cls-5{fill:#231f20;}</style><clipPath id="clip-path"><rect class="cls-1" width="353.72" height="562.69"/></clipPath></defs><title>plenvsDataSystem_logo</title><g class="cls-2"><path class="cls-3" d="M318.33,347.43a335.89,335.89,0,0,1-72.28,107.24A335.84,335.84,0,0,1,138.81,527a335.59,335.59,0,0,1-130,26.48V217.88h336a335.66,335.66,0,0,1-26.48,129.55M8.49,138.26H86.11v77.23H82.49A78.59,78.59,0,0,1,8.88,143.74Zm99.77,27.56V138.38c14.89.64,26.4,12.57,27.18,27.44Zm27.19,2.39a48.54,48.54,0,0,1-44.88,47.28H88.5V168.21ZM96.26,158.06v7.3a8.2,8.2,0,0,1-7.33-7.3Zm9.61,7.76H98.65v-7.76h7.22Zm-17-10.16c.65-9.29,7.66-16.71,17-17.27v17.27Zm-80-26.1A128.55,128.55,0,0,1,135.84,9.3V135.81H8.49ZM138.24,9.29a207.41,207.41,0,0,1,206.57,206.2H138.24ZM353.72,0H0V562.69H353.72Z"/><path class="cls-4" d="M163.58,257.9H137a1,1,0,0,0-1,1v12.54a1,1,0,0,0,1,1h26.63a1,1,0,0,0,1-1V258.91a1,1,0,0,0-1-1"/><path class="cls-3" d="M133.63,231.8H119.3a1,1,0,0,0-1,1v64.48a1,1,0,0,0,1,1h44.28a1,1,0,0,0,1-1V283.42a1,1,0,0,0-1-1H135.64a1,1,0,0,1-1-1V248.58a1,1,0,0,1,1-1h27.94a1,1,0,0,0,1-1V232.8a1,1,0,0,0-1-1h-30Z"/><path class="cls-3" d="M34.85,231.8H20.77a1,1,0,0,0-1,1v64.48a1,1,0,0,0,1,1H34.85a1,1,0,0,0,1-1V232.8a1,1,0,0,0-1-1"/><path class="cls-4" d="M46.33,231.8H37.16v15.68h9.17c10.14-.09,10.14,16.53,0,16.43H37.16v14.94h9.27c16.06,0,24.23-11.75,24.23-23.58S62.58,231.8,46.33,231.8"/><path class="cls-3" d="M87.42,231.8H73.17a1,1,0,0,0-1,1v64.48a1,1,0,0,0,1,1H87.42a1,1,0,0,0,1-1V232.8a1,1,0,0,0-1-1"/><path class="cls-4" d="M115.1,281.66H90.74a1,1,0,0,0-1,1v14.6a1,1,0,0,0,1,1H115.1a1,1,0,0,0,1-1v-14.6a1,1,0,0,0-1-1"/><path class="cls-3" d="M298,270.64l14.05-13.16c-1.28-.3-2.59-.56-3.9-.8-5.16-1.13-8.64-3-8.82-6.2.28-7.7,11.73-8.41,19.9.19l2.68-2.4,7.43-7c-6.82-8.22-14.57-10.45-22.59-10.45-12.21,0-24,6.85-24,19.91,0,10.58,6.81,17,15.29,19.87"/><path class="cls-4" d="M313.57,257.85l-14.13,13.23a36.26,36.26,0,0,0,3.75.82c5.44.75,11.55,2.9,11.36,6.66-.47,7.13-15.06,6.76-21.75-1.27l-10.62,9.94c6.19,8,14.63,12,22.6,12,12.21,0,25.73-7,26.3-19.91.63-13.83-7.74-18.91-17.51-21.46"/><path class="cls-3" d="M168.12,298.28h13.61a1,1,0,0,0,1-1V232.8a1,1,0,0,0-1-1H168.12a1,1,0,0,0-1,1v64.48a1,1,0,0,0,1,1"/><path class="cls-4" d="M202.41,297.12c.28.49.5.42.5-.13V265.17a4.19,4.19,0,0,0-.52-1.86l-17.83-29.08c-.29-.47-.52-.41-.52.14v29.72a4.35,4.35,0,0,0,.5,1.88Z"/><path class="cls-3" d="M205.22,298.28h13.84a1,1,0,0,0,1-1V232.8a1,1,0,0,0-1-1H205.22a1,1,0,0,0-1,1v64.48a1,1,0,0,0,1,1"/><path class="cls-4" d="M244.67,295.87c.19.52.48.51.65,0l6.93-22.07a3.68,3.68,0,0,0,0-1.92l-12.32-39.1a1.45,1.45,0,0,0-1.31-1h-16a.66.66,0,0,0-.67.94Z"/><path class="cls-3" d="M246.9,298.29h13a1.53,1.53,0,0,0,1.35-1l23.27-64.6a.66.66,0,0,0-.67-.94h-16a1.47,1.47,0,0,0-1.31,1L256.3,265.07c-.17.53-.3,1-.29,1s-.11.44-.28,1l-9.54,30.33a.7.7,0,0,0,.71,1"/><path class="cls-5" d="M155.12,203H151V188.2h4.08c4.51,0,6.64,3.59,6.71,7.21s-2.07,7.58-6.71,7.58m0-16.05h-5.28v17.33h5.28c5.46,0,8-4.45,7.91-8.86-.09-4.26-2.62-8.47-7.91-8.47"/></g><path class="cls-5" d="M170.73,198.78l4.19-10.55,4.19,10.55Zm3.54-11.84-7,17.33h1.29l1.69-4.25h9.32l1.71,4.25h1.29l-7-17.33Z"/><polygon class="cls-5" points="183.96 188.15 189.59 188.15 189.59 204.28 190.8 204.28 190.8 188.15 196.43 188.15 196.43 186.96 183.96 186.96 183.96 188.15"/><path class="cls-5" d="M203.68,198.78l4.19-10.55,4.19,10.55Zm3.55-11.84-7,17.33h1.29l1.7-4.25h9.31l1.71,4.25h1.3l-7-17.33Z"/><polygon class="cls-5" points="218.91 185.48 227.25 206.3 228.4 206.3 220.09 185.48 218.91 185.48"/><g class="cls-2"><path class="cls-5" d="M238.71,194.72c-2.63-.55-4.77-1.07-4.77-3.27,0-2.77,2.9-3.52,4.72-3.52s3.59.32,4.73,2.35l1-.64c-1.54-2.55-3.48-2.95-5.71-2.95-2.56,0-6,1.14-5.92,4.81,0,3.19,2.92,3.83,5.77,4.45,2.56.55,5.14,1.12,5.12,3.72,0,3.07-3,3.66-5,3.66a6,6,0,0,1-5.32-3.14l-1.07.59a6.86,6.86,0,0,0,6.39,3.77c2.61,0,6.15-1,6.18-4.86,0-3.74-3.12-4.33-6.13-5"/></g><polygon class="cls-5" points="255.16 196.05 249.88 186.94 248.48 186.94 248.48 186.96 254.56 197.34 254.56 204.28 255.76 204.28 255.76 197.34 261.87 186.96 261.87 186.94 260.46 186.94 255.16 196.05"/><g class="cls-2"><path class="cls-5" d="M272.62,194.72c-2.63-.55-4.77-1.07-4.77-3.27,0-2.77,2.9-3.52,4.72-3.52s3.59.32,4.73,2.35l1-.64c-1.54-2.55-3.48-2.95-5.71-2.95-2.56,0-6,1.14-5.92,4.81,0,3.19,2.92,3.83,5.77,4.45,2.56.55,5.15,1.12,5.12,3.72,0,3.07-3.05,3.66-5,3.66a6,6,0,0,1-5.32-3.14l-1.07.59a6.86,6.86,0,0,0,6.39,3.77c2.61,0,6.15-1,6.18-4.86,0-3.74-3.12-4.33-6.13-5"/></g><polygon class="cls-5" points="283.21 188.15 288.85 188.15 288.85 204.28 290.06 204.28 290.06 188.15 295.69 188.15 295.69 186.96 283.21 186.96 283.21 188.15"/><polygon class="cls-5" points="302.27 196.15 311.41 196.15 311.41 194.94 302.27 194.94 302.27 188.2 311.86 188.2 311.86 186.94 301.1 186.94 301.1 204.27 312.12 204.27 312.12 202.99 302.27 202.99 302.27 196.15"/><polygon class="cls-5" points="331.23 186.94 325.32 197.04 319.35 186.94 317.93 186.94 317.93 204.27 319.13 204.27 319.13 188.87 325.15 199.03 325.55 199.03 331.52 188.87 331.52 204.27 332.7 204.27 332.7 186.94 331.23 186.94"/></svg>