<svg id="Layer_1" data-name="Layer 1" xmlns="http://www.w3.org/2000/svg" viewBox="0 0 974.73 709.86"><defs><style>.cls-1{fill:#726e75;}.cls-2{fill:#ee7227;}</style></defs><polygon class="cls-1" points="307 436.62 203.3 165.18 241.69 165.18 327.74 393.71 413.97 165.18 452.18 165.18 348.66 436.62 307 436.62"/><polygon class="cls-1" points="626.6 165.18 730.29 436.62 691.91 436.62 605.86 208.08 519.63 436.62 481.42 436.62 584.93 165.18 626.6 165.18"/><path class="cls-2" d="M639.37,365.23a29.14,29.14,0,1,1-29.14-29.14,29.14,29.14,0,0,1,29.14,29.14" transform="translate(-5 -5)"/><path class="cls-1" d="M194,522.13l-5.6-2.32c-6.47-2.8-8.78-5.6-8.78-12.74,0-7.92,4.24-14,12.45-14s12.85,5.6,12.46,13.62h6.08c.29-11.4-7.14-19.22-18.44-19.22-11.78,0-18.83,8.21-18.83,20,0,11.59,6.95,15.94,16.7,19.8,8.31,3.28,16.23,5,16.23,15.93,0,9-5.8,14.58-14.58,14.58-10,0-13.72-7.53-13.62-16.61h-6.18c-.29,12.85,6.66,22.21,19.89,22.21,12.65,0,20.77-7.91,20.77-20.37C212.57,529.86,204.65,526.57,194,522.13Z" transform="translate(-5 -5)"/><polygon class="cls-1" points="283.66 518.67 268.4 484.2 261.45 484.2 280.57 525.82 280.57 556.63 286.85 556.63 286.85 525.82 306.16 484.2 299.6 484.2 283.66 518.67"/><path class="cls-1" d="M387.16,522.13l-5.6-2.32c-6.47-2.8-8.78-5.6-8.78-12.74,0-7.92,4.24-14,12.45-14s12.85,5.6,12.46,13.62h6.08c.29-11.4-7.14-19.22-18.44-19.22-11.78,0-18.83,8.21-18.83,20,0,11.59,6.95,15.94,16.7,19.8,8.31,3.28,16.23,5,16.23,15.93,0,9-5.8,14.58-14.58,14.58-10,0-13.72-7.53-13.62-16.61h-6.18c-.29,12.85,6.66,22.21,19.89,22.21,12.65,0,20.77-7.91,20.77-20.37C405.71,529.86,397.79,526.57,387.16,522.13Z" transform="translate(-5 -5)"/><polygon class="cls-1" points="454.69 489.8 471.11 489.8 471.11 556.63 477.38 556.63 477.38 489.8 493.8 489.8 493.8 484.2 454.69 484.2 454.69 489.8"/><polygon class="cls-1" points="556.66 521.48 580.81 521.48 580.81 515.87 556.66 515.87 556.66 489.8 583.22 489.8 583.22 484.2 550.39 484.2 550.39 556.63 583.7 556.63 583.7 551.02 556.66 551.02 556.66 521.48"/><polygon class="cls-1" points="670.04 547.36 669.84 547.36 652.65 484.2 642.13 484.2 642.13 556.63 648.4 556.63 648.4 490.48 648.6 490.48 666.75 556.63 673.42 556.63 691.38 490.48 691.57 490.48 691.57 556.63 697.85 556.63 697.85 484.2 687.61 484.2 670.04 547.36"/><path class="cls-1" d="M784.06,522.13l-5.6-2.32c-6.47-2.8-8.79-5.6-8.79-12.74,0-7.92,4.25-14,12.46-14s12.84,5.6,12.46,13.62h6.08c.29-11.4-7.14-19.22-18.44-19.22-11.78,0-18.83,8.21-18.83,20,0,11.59,7,15.94,16.7,19.8,8.31,3.28,16.23,5,16.23,15.93,0,9-5.8,14.58-14.59,14.58-9.94,0-13.71-7.53-13.61-16.61H762c-.29,12.85,6.66,22.21,19.89,22.21,12.65,0,20.76-7.91,20.76-20.37C802.6,529.86,794.68,526.57,784.06,522.13Z" transform="translate(-5 -5)"/><path class="cls-2" d="M979.73,353.31H916.42V69.64H506.93V5H493.69V69.64H63V353.31H5v13.24H63V637H493.69v77.88h13.24V637H916.42V366.55h63.31ZM902.66,623.22H506.93V593H493.69v30.2H76.77V366.55h50.07V353.31H76.77V83.4H493.69v43.44h13.24V83.4H902.66V353.31H857.89v13.24h44.77Z" transform="translate(-5 -5)"/></svg>