<?xml version="1.0" encoding="utf-8"?>
<!-- Generator: Adobe Illustrator 23.0.1, SVG Export Plug-In . SVG Version: 6.00 Build 0)  -->
<svg version="1.1" xmlns="http://www.w3.org/2000/svg" xmlns:xlink="http://www.w3.org/1999/xlink" x="0px" y="0px"
	 viewBox="0 0 512 512" style="enable-background:new 0 0 512 512;" xml:space="preserve">
<style type="text/css">
	.st0{fill:#F2BD14;}
	.st1{fill:#F32111;}
	.st2{fill:#5D9D66;}
</style>
<g id="Capa_1">
	<g>
		<path class="st0" d="M256,6C117.9,6,6,117.9,6,256s111.9,250,250,250s250-111.9,250-250S394.1,6,256,6z M256,415.6
			c-19.5,0-32.9-15.1-32.9-34.6c0-20.1,13.9-34.6,32.9-34.6c20.1,0,32.9,14.5,32.9,34.6C288.9,400.5,276.1,415.6,256,415.6z
			 M269,283.5c-5,17-20.7,17.3-25.9,0c-6-19.9-27.4-95.5-27.4-144.6c0-64.8,81.1-65.1,81.1,0C296.7,188.3,274.1,265.9,269,283.5z"/>
	</g>
</g>
<g id="Capa_1_copy">
</g>
<g id="Capa_1_copy_2">
</g>
</svg>
