<?xml version="1.0" encoding="utf-8"?>
<!-- Generator: Adobe Illustrator 23.0.1, SVG Export Plug-In . SVG Version: 6.00 Build 0)  -->
<svg version="1.1" id="Layer_1" xmlns="http://www.w3.org/2000/svg" xmlns:xlink="http://www.w3.org/1999/xlink" x="0px" y="0px"
	 viewBox="0 0 500 500" style="enable-background:new 0 0 500 500;" xml:space="preserve">
<g>
	<path d="M250,160.12c-49.64,0-89.88,40.24-89.88,89.88c0,49.64,40.24,89.88,89.88,89.88c49.64,0,89.88-40.24,89.88-89.88
		C339.88,200.36,299.64,160.12,250,160.12z"/>
	<path d="M404.7,5H95.3C45.43,5,5,45.43,5,95.3V404.7C5,454.57,45.43,495,95.3,495H404.7c49.87,0,90.3-40.43,90.3-90.3V95.3
		C495,45.43,454.57,5,404.7,5z M250,385.19C112.87,385.19,32,250,32,250s80.87-135.19,218-135.19C387.13,114.81,468,250,468,250
		S387.13,385.19,250,385.19z"/>
</g>
</svg>
