<?xml version="1.0" encoding="utf-8"?>
<!-- Generator: Adobe Illustrator 22.1.0, SVG Export Plug-In . SVG Version: 6.00 Build 0)  -->
<svg version="1.1" id="Capa_1" xmlns="http://www.w3.org/2000/svg" xmlns:xlink="http://www.w3.org/1999/xlink" x="0px" y="0px"
	 viewBox="0 0 512 512" style="enable-background:new 0 0 512 512;" xml:space="preserve">
<style type="text/css">
	.st0{fill:#EDBA94;}
</style>
<g>
	<g>
		<g>
			<path class="st0" d="M426.7,106.7c-47.1,0-85.3,38.2-85.3,85.3H384c0-23.6,19.1-42.7,42.7-42.7s42.7,19.1,42.7,42.7
				s-19.1,42.7-42.7,42.7H128v42.7h298.7c47.1,0,85.3-38.2,85.3-85.3S473.8,106.7,426.7,106.7z"/>
		</g>
	</g>
	<g>
		<g>
			<path class="st0" d="M339.8,320H85.3v42.7h254.4c23.6,0,42.7,19.1,42.7,42.7v1.6c0,22.7-18.4,41.1-41.1,41.1v42.7
				c46.3,0,83.8-37.5,83.8-83.8v-1.6C425.1,358.2,386.9,320,339.8,320z"/>
		</g>
	</g>
	<g>
		<g>
			<rect y="234.7" class="st0" width="85.3" height="42.7"/>
		</g>
	</g>
	<g>
		<g>
			<path class="st0" d="M213.1,21.3c-46.4,0-84,37.6-84,84v5.4h42.7v-5.4c0-22.8,18.5-41.4,41.4-41.4s41.4,18.5,41.4,41.4v1.3
				c0,23.6-19.1,42.7-42.7,42.7H42.7V192h169.1c47.1,0,85.3-38.2,85.3-85.3v-1.3C297.1,59,259.5,21.3,213.1,21.3z"/>
		</g>
	</g>
</g>
</svg>
