<?xml version="1.0" encoding="utf-8"?>
<!-- Generator: Adobe Illustrator 24.3.0, SVG Export Plug-In . SVG Version: 6.00 Build 0)  -->
<svg version="1.1" id="Layer_1" xmlns="http://www.w3.org/2000/svg" xmlns:xlink="http://www.w3.org/1999/xlink" x="0px" y="0px"
	 viewBox="0 0 500 500" style="enable-background:new 0 0 500 500;" xml:space="preserve">
<g>
	<path d="M250,446v30h150V346.2l19.4,19.4l21.2-21.2L385,288.8l-55.6,55.6l21.2,21.2l19.4-19.4V446H250z"/>
	<path d="M100,153.8l-19.4-19.4l-21.2,21.2l55.6,55.6l55.6-55.6l-21.2-21.2L130,153.8V54h120V24H100V153.8z"/>
	<path d="M196.5,476h-163V272h163V476z M62.5,447h105V301h-105V447z"/>
	<path d="M466.5,228h-163V24h163V228z M332.5,199h105V53h-105V199z"/>
</g>
</svg>
