<svg id="Capa_1" enable-background="new 0 0 510.915 510.915" height="512" viewBox="0 0 510.915 510.915" width="512" xmlns="http://www.w3.org/2000/svg"><g id="XMLID_344_"><path id="XMLID_345_" d="m160.053 114.075h134.854v30h-134.854z"/><path id="XMLID_823_" d="m160.053 195.715h134.854v30h-134.854z"/><path id="XMLID_824_" d="m160.053 277.356h134.854v30h-134.854z"/><path id="XMLID_826_" d="m98.341 112.469c-7.846 0-15.363 6.899-15 15 .364 8.127 6.591 15 15 15 7.846 0 15.363-6.899 15-15-.364-8.127-6.591-15-15-15z"/><path id="XMLID_827_" d="m98.341 195.715c-7.846 0-15.363 6.899-15 15 .364 8.127 6.591 15 15 15 7.846 0 15.363-6.899 15-15-.364-8.127-6.591-15-15-15z"/><path id="XMLID_828_" d="m98.341 278.962c-7.846 0-15.363 6.899-15 15 .364 8.127 6.591 15 15 15 7.846 0 15.363-6.899 15-15-.364-8.127-6.591-15-15-15z"/><path id="XMLID_829_" d="m98.341 362.208c-7.846 0-15.363 6.899-15 15 .364 8.127 6.591 15 15 15 7.846 0 15.363-6.899 15-15-.364-8.127-6.591-15-15-15z"/><path id="XMLID_834_" d="m510.915 313.221-19.242-23.017-15.236 12.737c-20.151-25.965-51.646-42.708-86.982-42.708-2.83 0-5.635.108-8.411.319v-257.833h-381.044v505.476h381.044v-28.162c2.777.211 5.582.319 8.411.319 60.687 0 110.059-49.373 110.059-110.06 0-14.46-2.809-28.275-7.9-40.936zm-159.871 164.975h-321.044v-445.477h321.044v234.435c-38.424 14.356-66.745 49.597-71.072 91.841h-119.919v30h120.94c6.692 38.927 33.897 70.927 70.052 84.436v4.765zm118.47-107.903c0 44.145-35.914 80.06-80.059 80.06s-80.06-35.915-80.06-80.06 35.915-80.059 80.06-80.059c26.106 0 49.329 12.565 63.953 31.96l-62.313 52.092-44.87-35.98-18.768 23.404 64.032 51.348 75.415-63.044c1.699 6.478 2.61 13.274 2.61 20.279z"/></g></svg>