<?xml version="1.0" encoding="utf-8"?>
<!-- Generator: Adobe Illustrator 23.0.4, SVG Export Plug-In . SVG Version: 6.00 Build 0)  -->
<svg version="1.1" id="Layer_1" xmlns="http://www.w3.org/2000/svg" xmlns:xlink="http://www.w3.org/1999/xlink" x="0px" y="0px"
	 viewBox="0 0 512 512" style="enable-background:new 0 0 512 512;" xml:space="preserve">
<style type="text/css">
	.st0{fill:#C4C4C4;}
</style>
<g id="Capa_1">
</g>
<g id="Capa_1_copy_2">
</g>
<g>
	<path class="st0" d="M248.5,287.3l-37.6,37.6c-7.3,7.3-11.4,17.1-11.4,27.4v44.7h112.9v-44.7c0-10.4-4-20.1-11.4-27.4l-37.6-37.6
		C259.4,283.2,252.7,283.2,248.5,287.3z"/>
	<path class="st0" d="M256,6C117.9,6,6,117.9,6,256s111.9,250,250,250s250-111.9,250-250S394.1,6,256,6z M304,269.1l23.9,21.5
		c17.1,15.4,26.9,37.3,26.9,60.3v46.2h14.1c7.8,0,14.1,6.3,14.1,14.1c0,7.8-6.3,14.1-14.1,14.1H143.1c-7.8,0-14.1-6.3-14.1-14.1
		c0-7.8,6.3-14.1,14.1-14.1h14.1v-46.2c0-23,9.8-44.9,26.9-60.3l23.9-21.5c3.8-3.4,5.8-8,5.8-13.1s-2.1-9.7-5.8-13.1l-23.9-21.5
		C167,206,157.2,184,157.2,161.1v-46.2h-14.1c-7.8,0-14.1-6.3-14.1-14.1c0-7.8,6.3-14.1,14.1-14.1h225.8c7.8,0,14.1,6.3,14.1,14.1
		c0,7.8-6.3,14.1-14.1,14.1h-14.1v46.2c0,23-9.8,44.9-26.9,60.3L304,242.9c-3.8,3.4-5.8,8-5.8,13.1S300.3,265.7,304,269.1z"/>
</g>
</svg>
