<?xml version="1.0" encoding="iso-8859-1"?>
<!-- Generator: Adobe Illustrator 16.0.0, SVG Export Plug-In . SVG Version: 6.00 Build 0)  -->
<!DOCTYPE svg PUBLIC "-//W3C//DTD SVG 1.1//EN" "http://www.w3.org/Graphics/SVG/1.1/DTD/svg11.dtd">
<svg xmlns="http://www.w3.org/2000/svg" xmlns:xlink="http://www.w3.org/1999/xlink" version="1.1" id="Capa_1" x="0px" y="0px" width="512px" height="512px" viewBox="0 0 364.055 364.055" style="enable-background:new 0 0 364.055 364.055;" xml:space="preserve">
<g>
	<g>
		<path d="M182.027,0C81.657,0,0,81.656,0,182.027c0,100.37,81.657,182.028,182.027,182.028    c100.37,0,182.028-81.658,182.028-182.028C364.055,81.656,282.396,0,182.027,0z M182.027,345.621    c-90.206,0-163.595-73.387-163.595-163.594c0-90.209,73.389-163.596,163.595-163.596c90.206,0,163.594,73.387,163.594,163.596    C345.621,272.234,272.232,345.621,182.027,345.621z" fill="#0e3d51"/>
		<path d="M182.027,54.619c-70.252,0-127.408,57.154-127.408,127.408c0,5.09,4.127,9.217,9.217,9.217s9.217-4.127,9.217-9.217    c0-60.088,48.887-108.975,108.975-108.975C242.115,73.052,291,121.939,291,182.027c0,5.09,4.127,9.217,9.219,9.217    c5.09,0,9.217-4.127,9.217-9.217C309.434,111.773,252.277,54.619,182.027,54.619z" fill="#0e3d51"/>
		<path d="M243.791,117.65c-4.693-1.984-10.1,0.197-12.086,4.883l-41.17,96.959c-2.758-0.537-5.598-0.838-8.508-0.838    c-24.516,0-44.459,19.944-44.459,44.459c0,24.512,19.943,44.457,44.459,44.457c24.514,0,44.458-19.945,44.458-44.457    c0-15.041-7.529-28.344-18.998-36.392l41.186-96.99C250.66,125.048,248.475,119.638,243.791,117.65z M182.027,289.139    c-14.352,0-26.025-11.675-26.025-26.025c0-14.352,11.674-26.025,26.025-26.025c14.35,0,26.024,11.674,26.024,26.025    C208.051,277.464,196.377,289.139,182.027,289.139z" fill="#0e3d51"/>
	</g>
</g>
<g>
</g>
<g>
</g>
<g>
</g>
<g>
</g>
<g>
</g>
<g>
</g>
<g>
</g>
<g>
</g>
<g>
</g>
<g>
</g>
<g>
</g>
<g>
</g>
<g>
</g>
<g>
</g>
<g>
</g>
</svg>
