<svg id="Layer_1" data-name="Layer 1" xmlns="http://www.w3.org/2000/svg" viewBox="0 0 316.83 200.44"><defs><style>.cls-1{fill:#ccc;}</style></defs><title>default_no_data</title><path class="cls-1" d="M246.23,131.36,177.31,17.08a15.09,15.09,0,0,0-25.85,0L82.55,131.36a15.1,15.1,0,0,0,12.93,22.89H233.3a15.1,15.1,0,0,0,12.93-22.89Zm-9.31,9.84a4.17,4.17,0,0,1-3.62,2.11H95.48a4.15,4.15,0,0,1-3.56-6.3L160.83,22.73a4.16,4.16,0,0,1,7.12,0L236.86,137A4.18,4.18,0,0,1,236.92,141.2Z" transform="translate(-6.58 -9.78)"/><path class="cls-1" d="M164.44,106.94c2.44,0,5.89-1.32,5.89-4.47,0-12.07,1.42-29.42,1.42-41.5,0-4-3.35-6.19-7.31-6.19C160.28,54.78,157,57,157,61c0,12.08,1.42,29.43,1.42,41.5C158.45,105.62,161.19,106.94,164.44,106.94Z" transform="translate(-6.58 -9.78)"/><path class="cls-1" d="M164.54,113.94a7.82,7.82,0,0,0,0,15.63,7.82,7.82,0,0,0,0-15.63Z" transform="translate(-6.58 -9.78)"/><path class="cls-1" d="M26.31,184.77V209.9H23l-13.18-20v20H6.58V184.77H9.86L23,204.71V184.77Z" transform="translate(-6.58 -9.78)"/><path class="cls-1" d="M40.5,210.22c-5.58,0-9.83-4-9.83-10.22s4.39-10.15,10-10.15,10,3.92,10,10.15A9.78,9.78,0,0,1,40.5,210.22Zm0-2.88c3.42,0,6.76-2.34,6.76-7.34s-3.27-7.31-6.66-7.31S34,195,34,200,37.08,207.34,40.5,207.34Z" transform="translate(-6.58 -9.78)"/><path class="cls-1" d="M85.67,197.41c0,7.77-5.07,12.49-13.31,12.49H64.54V184.81h7.82C80.6,184.81,85.67,189.63,85.67,197.41ZM72.36,207.2c6.55,0,10-3.67,10-9.79s-3.42-9.94-10-9.94H67.82V207.2Z" transform="translate(-6.58 -9.78)"/><path class="cls-1" d="M98.13,189.85a8.18,8.18,0,0,1,7.34,3.92v-3.6h3.32V209.9h-3.32v-3.67a8.22,8.22,0,0,1-7.37,4c-5.26,0-9.33-4.14-9.33-10.26S92.84,189.85,98.13,189.85Zm.65,2.84c-3.6,0-6.66,2.63-6.66,7.27s3.06,7.38,6.66,7.38,6.69-2.7,6.69-7.34S102.38,192.69,98.78,192.69Z" transform="translate(-6.58 -9.78)"/><path class="cls-1" d="M115.05,192.87H112.5v-2.7h2.55v-5h3.28v5h5.14v2.7h-5.14V204.5c0,1.94.72,2.63,2.73,2.63h2.41v2.77h-3c-3.49,0-5.47-1.44-5.47-5.4Z" transform="translate(-6.58 -9.78)"/><path class="cls-1" d="M135.57,189.85a8.18,8.18,0,0,1,7.34,3.92v-3.6h3.32V209.9h-3.32v-3.67a8.23,8.23,0,0,1-7.38,4c-5.25,0-9.32-4.14-9.32-10.26S130.28,189.85,135.57,189.85Zm.65,2.84c-3.6,0-6.66,2.63-6.66,7.27s3.06,7.38,6.66,7.38,6.69-2.7,6.69-7.34S139.82,192.69,136.22,192.69Z" transform="translate(-6.58 -9.78)"/><path class="cls-1" d="M176.21,204.32H165.27l-2,5.58H159.8l9.07-25h3.78l9,25h-3.46ZM170.74,189l-4.53,12.67h9.07Z" transform="translate(-6.58 -9.78)"/><path class="cls-1" d="M186.84,190.17l6.15,16.7,6.12-16.7h3.49l-7.74,19.73h-3.81l-7.74-19.73Z" transform="translate(-6.58 -9.78)"/><path class="cls-1" d="M214,189.85a8.18,8.18,0,0,1,7.34,3.92v-3.6h3.31V209.9h-3.31v-3.67a8.24,8.24,0,0,1-7.38,4c-5.25,0-9.32-4.14-9.32-10.26S208.69,189.85,214,189.85Zm.65,2.84c-3.6,0-6.66,2.63-6.66,7.27s3.06,7.38,6.66,7.38,6.69-2.7,6.69-7.34S218.23,192.69,214.63,192.69Z" transform="translate(-6.58 -9.78)"/><path class="cls-1" d="M229.64,184.74a2.2,2.2,0,1,1,2.23,2.23A2.19,2.19,0,0,1,229.64,184.74Zm.54,5.43h3.28V209.9h-3.28Z" transform="translate(-6.58 -9.78)"/><path class="cls-1" d="M239,183.26h3.28V209.9H239Z" transform="translate(-6.58 -9.78)"/><path class="cls-1" d="M256,189.85a8.19,8.19,0,0,1,7.35,3.92v-3.6h3.31V209.9h-3.31v-3.67a8.25,8.25,0,0,1-7.38,4c-5.26,0-9.32-4.14-9.32-10.26S250.73,189.85,256,189.85Zm.65,2.84c-3.6,0-6.66,2.63-6.66,7.27s3.06,7.38,6.66,7.38,6.7-2.7,6.7-7.34S260.27,192.69,256.67,192.69Z" transform="translate(-6.58 -9.78)"/><path class="cls-1" d="M282.88,189.85c5.33,0,9.36,4,9.36,10.11s-4.07,10.26-9.36,10.26a8.24,8.24,0,0,1-7.38-4v3.64h-3.27V183.26h3.27v10.58A8.37,8.37,0,0,1,282.88,189.85Zm-.68,2.84c-3.57,0-6.7,2.74-6.7,7.31s3.13,7.34,6.7,7.34,6.69-2.73,6.69-7.38S285.83,192.69,282.2,192.69Z" transform="translate(-6.58 -9.78)"/><path class="cls-1" d="M296.56,183.26h3.28V209.9h-3.28Z" transform="translate(-6.58 -9.78)"/><path class="cls-1" d="M314,210.22c-5.62,0-9.76-4-9.76-10.22s4-10.15,9.76-10.15a9,9,0,0,1,9.47,9.43,18.33,18.33,0,0,1-.11,2H307.54a6.2,6.2,0,0,0,6.41,6.19,5.41,5.41,0,0,0,5.54-3.64H323C322,207.41,318.84,210.22,314,210.22Zm-6.37-11.63H320c0-3.85-2.84-6-6.23-6C310.6,192.62,307.94,194.74,307.58,198.59Z" transform="translate(-6.58 -9.78)"/></svg>