<?xml version="1.0" encoding="utf-8"?>
<!-- Generator: Adobe Illustrator 23.0.1, SVG Export Plug-In . SVG Version: 6.00 Build 0)  -->
<svg version="1.1" id="Layer_1" xmlns="http://www.w3.org/2000/svg" xmlns:xlink="http://www.w3.org/1999/xlink" x="0px" y="0px"
	 viewBox="0 0 400 160" style="enable-background:new 0 0 400 160;" xml:space="preserve">
<style type="text/css">
	.st0{fill:#919396;}
	.st1{fill:#004961;}
	.st2{fill:#0A607E;}
	.st3{font-family:'NexaLight';}
	.st4{font-size:35.5719px;}
</style>
<g>
	<g>
		<path class="st0" d="M66.96,56.33H4.22v99.8l62.73,0V56.33z M28.74,57.98c9.78,0.04,18.96,3.86,25.86,10.77
			c6.89,6.89,10.71,16.05,10.77,25.8H28.74V57.98z M5.8,79.31c0.35-5.54,2.68-10.7,6.63-14.65c4.25-4.25,9.88-6.61,15.89-6.68
			l0,22.44H5.73L5.8,79.31z M19.99,83.94c0.11-1.65,1.36-2.97,3.01-3.06v3.06H19.99z M23,84.36v1.38h-1.28v-1.38H23z M21.29,84.36
			v1.3c-0.72-0.09-1.23-0.62-1.3-1.3H21.29z M28.24,86.17c-0.14,4.46-3.56,8.07-7.96,8.39h-0.37v-8.39H28.24z M23.42,85.74v-4.87
			c2.64,0.11,4.68,2.23,4.82,4.87H23.42z M5.73,80.85h13.77v13.7h-0.64c-6.91-0.4-12.48-5.86-13.05-12.73L5.73,80.85z M60.68,117.95
			c-3.01,7.13-7.32,13.53-12.82,19.02c-5.49,5.49-11.89,9.81-19.02,12.82c-7.3,3.09-15.05,4.66-23.05,4.7V94.97h59.58
			C65.33,102.94,63.75,110.67,60.68,117.95z"/>
		<g>
			<g>
				<g>
					<path class="st1" d="M228.44,86.1c0-0.48-0.39-0.86-0.86-0.86h-27.06c-0.48,0-0.86,0.39-0.86,0.86V99
						c0,0.48,0.39,0.86,0.86,0.86h27.06c0.48,0,0.86-0.39,0.86-0.86V86.1z"/>
				</g>
				<g>
					<path class="st2" d="M227.57,74.86c0.48,0,0.86-0.39,0.86-0.86V59.87c0-0.48-0.39-0.86-0.86-0.86h-28.37c-0.48,0-1.25,0-1.73,0
						h-0.7c-0.48,0-1.25,0-1.73,0h-12.27c-0.48,0-0.86,0.39-0.86,0.86v65.08c0,0.48,0.39,0.86,0.86,0.86h12.27c0.48,0,1.25,0,1.73,0
						h0.7c0.48,0,1.25,0,1.73,0h28.37c0.48,0,0.86-0.39,0.86-0.86v-14.22c0-0.48-0.39-0.86-0.86-0.86h-28.37
						c-0.48,0-0.86-0.39-0.86-0.86V75.72c0-0.48,0.39-0.86,0.86-0.86H227.57z"/>
				</g>
			</g>
			<g>
				<g>
					<path class="st2" d="M99.08,59.87c0-0.48-0.39-0.86-0.86-0.86H83.77c-0.48,0-0.86,0.39-0.86,0.86v65.08
						c0,0.48,0.39,0.86,0.86,0.86h14.45c0.48,0,0.86-0.39,0.86-0.86V59.87z"/>
				</g>
				<path class="st1" d="M109.61,59.01h-9.22v15.76h9.22c10.19-0.09,10.19,16.61,0,16.51h-9.22v15.01h9.31
					c16.14,0,24.35-11.8,24.35-23.69C134.05,70.8,125.93,59.01,109.61,59.01z"/>
			</g>
			<g>
				<g>
					<path class="st2" d="M151.91,59.87c0-0.48-0.39-0.86-0.86-0.86h-14.62c-0.48,0-0.86,0.39-0.86,0.86v65.08
						c0,0.48,0.39,0.86,0.86,0.86h14.62c0.48,0,0.86-0.39,0.86-0.86V59.87z"/>
				</g>
				<g>
					<path class="st1" d="M154.08,109.11c-0.48,0-0.86,0.39-0.86,0.86v14.98c0,0.48,0.39,0.86,0.86,0.86h24.78
						c0.48,0,0.86-0.39,0.86-0.86v-14.98c0-0.48-0.39-0.86-0.86-0.86H154.08z"/>
				</g>
			</g>
			<g>
				<path class="st1" d="M362.51,98.04l14.13-13.22c-1.3-0.3-2.61-0.57-3.92-0.8c-5.19-1.13-8.68-3.02-8.87-6.23
					c0.28-7.74,11.79-8.45,20,0.19l2.69-2.42l7.47-6.99c-6.86-8.27-14.64-10.51-22.7-10.51c-12.27,0-24.16,6.89-24.16,20.01
					C347.15,88.71,353.99,95.2,362.51,98.04z"/>
				<path class="st2" d="M378.15,85.19l-14.2,13.29c1.23,0.34,2.49,0.62,3.77,0.82c5.47,0.76,11.61,2.93,11.42,6.7
					c-0.47,7.16-15.14,6.79-21.86-1.28l-10.68,9.99c6.23,8,14.71,12.05,22.72,12.05c12.27,0,25.86-7.08,26.42-20.01
					C396.38,92.86,387.96,87.75,378.15,85.19z"/>
			</g>
			<g>
				<g>
					<path class="st2" d="M246.68,59.87c0-0.48-0.39-0.86-0.86-0.86h-13.98c-0.48,0-0.86,0.39-0.86,0.86v65.08
						c0,0.48,0.39,0.86,0.86,0.86h13.98c0.48,0,0.86-0.39,0.86-0.86V59.87z"/>
				</g>
				<g>
					<path class="st1" d="M266.95,92.4c0-0.48-0.2-1.2-0.45-1.6l-18.06-29.48c-0.25-0.4-0.45-0.35-0.45,0.13v30.16
						c0,0.48,0.19,1.2,0.43,1.61l18.11,31.56c0.24,0.41,0.43,0.36,0.43-0.11V92.4L266.95,92.4z"/>
				</g>
				<g>
					<path class="st2" d="M269.12,59.01c-0.48,0-0.86,0.39-0.86,0.86v65.08c0,0.48,0.39,0.86,0.86,0.86h14.21
						c0.48,0,0.86-0.39,0.86-0.86V59.87c0-0.48-0.39-0.86-0.86-0.86H269.12z"/>
				</g>
			</g>
			<g>
				<path class="st1" d="M316.58,101.06c0.14-0.45,0.14-1.19,0-1.65l-12.47-39.58c-0.14-0.45-0.65-0.82-1.12-0.82h-16.39
					c-0.48,0-0.73,0.37-0.57,0.81l22.95,63.71c0.16,0.45,0.41,0.44,0.55-0.01L316.58,101.06z"/>
			</g>
			<g>
				<path class="st2" d="M332.08,59.01c-0.48,0-0.98,0.37-1.13,0.82l-10.4,32.76c-0.14,0.45-0.25,0.83-0.24,0.83
					c0.01,0-0.1,0.38-0.24,0.83L310.4,125c-0.14,0.45,0.13,0.82,0.6,0.82h13.4c0.48,0,1-0.37,1.16-0.81l23.48-65.19
					c0.16-0.45-0.1-0.81-0.57-0.81L332.08,59.01L332.08,59.01z"/>
			</g>
		</g>
		<g>
			<path class="st0" d="M96.85,146.98c0.06,3.09-1.62,6.21-5.22,6.21c-1.16,0-2.33,0-3.49,0v-12.14c1.16,0,2.32,0,3.49,0
				C95.11,141.05,96.79,144,96.85,146.98z M88.93,141.94v10.35h2.69c3.06,0,4.47-2.71,4.43-5.31c-0.04-2.53-1.46-5.05-4.43-5.05
				H88.93z"/>
			<path class="st0" d="M126.17,153.19l-1.13-2.98h-6.15l-1.12,2.98h-0.85l4.62-12.14h0.87l4.62,12.14H126.17z M124.72,149.34
				l-2.77-7.39l-2.77,7.39H124.72z"/>
			<path class="st0" d="M148.91,141.9h-3.72v-0.83h8.24v0.83h-3.72v11.29h-0.8L148.91,141.9L148.91,141.9z"/>
			<path class="st0" d="M182.45,153.19l-1.13-2.98h-6.15l-1.12,2.98h-0.85l4.62-12.14h0.87l4.62,12.14H182.45z M181.01,149.34
				l-2.77-7.39l-2.77,7.39H181.01z"/>
			<path class="st0" d="M208.3,154.61l-5.5-14.58h0.78l5.49,14.58H208.3L208.3,154.61z"/>
			<path class="st0" d="M236.22,143.4c-0.75-1.42-1.96-1.63-3.12-1.65c-1.21,0-3.12,0.52-3.12,2.46c0,1.54,1.41,1.91,3.15,2.29
				c1.99,0.45,4.05,0.87,4.05,3.48c-0.02,2.74-2.35,3.4-4.08,3.4c-1.6,0-3.43-0.78-4.22-2.64l0.71-0.42c0.63,1.47,2.25,2.2,3.52,2.2
				c1.26,0,3.28-0.42,3.28-2.57c0.01-1.82-1.69-2.22-3.38-2.6c-1.88-0.43-3.81-0.88-3.81-3.12c-0.04-2.57,2.22-3.36,3.91-3.36
				c1.47,0,2.75,0.28,3.77,2.06L236.22,143.4z"/>
			<path class="st0" d="M260.86,148.34l-4.02-7.26v-0.02h0.93l3.49,6.38l3.5-6.38h0.93v0.02l-4.03,7.26v4.85h-0.79V148.34z"/>
			<path class="st0" d="M293.13,143.4c-0.75-1.42-1.96-1.63-3.12-1.65c-1.21,0-3.12,0.52-3.12,2.46c0,1.54,1.41,1.91,3.15,2.29
				c1.99,0.45,4.05,0.87,4.05,3.48c-0.01,2.74-2.35,3.4-4.08,3.4c-1.6,0-3.43-0.78-4.22-2.64l0.71-0.42c0.63,1.47,2.25,2.2,3.52,2.2
				c1.27,0,3.28-0.42,3.28-2.57c0.01-1.82-1.69-2.22-3.38-2.6c-1.88-0.43-3.81-0.88-3.81-3.12c-0.04-2.57,2.22-3.36,3.91-3.36
				c1.47,0,2.75,0.28,3.77,2.06L293.13,143.4z"/>
			<path class="st0" d="M318.03,141.9h-3.72v-0.83h8.24v0.83h-3.72v11.29h-0.79L318.03,141.9L318.03,141.9z"/>
			<path class="st0" d="M344.15,146.66h6.03v0.85h-6.03v4.79h6.5v0.9h-7.28v-12.14h7.11v0.88h-6.33V146.66z"/>
			<path class="st0" d="M380.72,142.41l-3.94,7.11h-0.26l-3.97-7.11v10.78h-0.79v-12.14c0.38,0,0.56,0,0.94,0l3.94,7.07l3.9-7.07
				h0.97v12.14h-0.78L380.72,142.41L380.72,142.41z"/>
		</g>
	</g>
	<text transform="matrix(1 0 0 1 103.6899 34.1072)" class="st2 st3 st4">welcome to</text>
</g>
</svg>
