<?xml version="1.0" encoding="utf-8"?>
<!-- Generator: Adobe Illustrator 22.0.1, SVG Export Plug-In . SVG Version: 6.00 Build 0)  -->
<svg version="1.1" id="Camada_1" xmlns="http://www.w3.org/2000/svg" xmlns:xlink="http://www.w3.org/1999/xlink" x="0px" y="0px"
	 viewBox="0 0 1000 148" style="enable-background:new 0 0 1000 148;" xml:space="preserve">
<style type="text/css">
	.st0{fill:#F26522;}
	.st1{fill:#A7A9AC;}
</style>
<g>
	<g>
		<path class="st0" d="M984.5,34.3c0,6.4-5.1,11.4-11.6,11.4c-6.5,0-11.7-5.1-11.7-11.4c0-6.4,5.2-11.4,11.8-11.4
			C979.4,22.9,984.5,27.9,984.5,34.3z M964.1,34.3c0,5.1,3.8,9.1,8.9,9.1c4.9,0.1,8.7-4,8.7-9c0-5.1-3.8-9.1-8.8-9.1
			C967.9,25.2,964.1,29.3,964.1,34.3z M971.1,40.2h-2.6V28.8c1-0.1,2.5-0.3,4.4-0.3c2.1,0,3.1,0.3,3.9,0.9c0.7,0.5,1.2,1.3,1.2,2.4
			c0,1.4-1,2.3-2.4,2.7v0.1c1.1,0.3,1.7,1.2,2,2.8c0.3,1.7,0.6,2.4,0.8,2.8h-2.8c-0.4-0.4-0.6-1.4-0.9-2.8c-0.2-1.2-0.9-1.7-2.4-1.7
			h-1.2V40.2z M971.1,33.8h1.2c1.5,0,2.6-0.5,2.6-1.7c0-1-0.8-1.7-2.4-1.7c-0.7,0-1.2,0.1-1.5,0.1V33.8z"/>
	</g>
	<g>
		<g>
			<path class="st1" d="M15.5,65.2c0-20.1,18-30,36.2-30c18.1,0,36.3,10,36.3,30v29.9c0,20-18,30-36.2,30c-18.1,0-36.3-10-36.3-30
				V65.2z M37.6,95.1c0,6.4,7.2,9.5,14.2,9.5c7,0,14.1-3.2,14.1-9.5V65.2c0-6.8-7.3-9.9-14.4-9.9c-6.9,0-13.8,3.5-13.8,9.9V95.1z"/>
			<path class="st1" d="M98,36.4h22.1l18.4,42.7L157,36.4h22.1v87.4h-22.2l0.1-25.2l1.4-17.7l-0.7-0.1l-11.5,30h-15.2l-11.7-30
				l-0.6,0.1l1.5,17.7v25.2H98V36.4z"/>
			<path class="st1" d="M190.9,36.4h21l21.1,37.3l7.4,17.5l0.6-0.1c-0.1,0-2.3-15.1-2.5-15.1V36.4h22v87.4h-22.3l-19.8-34.4
				l-7.7-17.5l-0.6,0.1l2.8,16.9v34.9h-22.1V36.4z"/>
			<path class="st1" d="M294.4,123.8h-22.1V36.4h22.1V123.8z"/>
		</g>
		<g>
			<path class="st0" d="M317.9,65.2c0-20.1,18-30,36.2-30c18.2,0,36.3,10,36.3,30v29.9c0,20-18,30-36.2,30c-18.2,0-36.3-10-36.3-30
				V65.2z M340.1,95.1c0,6.4,7.2,9.5,14.2,9.5c7,0,14.1-3.2,14.1-9.5V65.2c0-6.8-7.3-9.9-14.4-9.9c-6.9,0-13.8,3.5-13.8,9.9V95.1z"
				/>
			<path class="st0" d="M426.7,96.1h-3.9v27.8h-22.4V36.4h35c18,0,32,8.3,32.5,28.8c0,16.2-6.5,25.3-17.2,28.7l23.8,30H447
				L426.7,96.1z M435.7,77c14,0,14-20,0-20h-13v20H435.7z"/>
			<path class="st0" d="M522.9,62.3c-4.8-11.7-24.3-9-24.3,2.5v30c0,13.7,25.6,13.6,25.6,0v-3.2h-14V73.1h35.2v21.7
				c0,20.1-16.8,30.3-34.3,30.3c-17.3,0-34.6-10.1-34.6-30.3v-30c0-19.7,17.3-29.6,34.6-29.6c11.4,0,24.3,4.7,30.4,18.6L522.9,62.3z
				"/>
			<path class="st0" d="M628.3,123.8h-23.7l-5.7-17.5h-23.3l-5.4,17.5h-23.7l30.5-87.4h20.1L628.3,123.8z M593.6,86.7l-6.1-25.6
				h-0.6l-6.4,25.6H593.6z"/>
			<path class="st0" d="M634.7,36.4h21l21.1,37.3l7.4,17.5l0.6-0.1c-0.1,0-2.4-15.1-2.5-15.1V36.4h22v87.4H682l-19.8-34.4l-7.7-17.5
				l-0.6,0.1l2.8,16.9v34.9h-22.1V36.4z"/>
			<path class="st0" d="M738.1,123.8H716V36.4h22.1V123.8z"/>
			<path class="st0" d="M812.1,36.4l4.7,7.4l-37.7,59.9l35.6-0.2v20.4h-64.8l-4.1-8.1l37.8-58.8h-35.1V36.4H812.1z"/>
			<path class="st0" d="M847.1,70.7h35.4v19.1h-35.4V103h38.5v20.9h-60.9V36.4h60.9v20.7h-38.5V70.7z"/>
			<path class="st0" d="M922.2,96.1h-4v27.8h-22.3V36.4h34.9c18,0,32,8.3,32.5,28.8c0,16.2-6.5,25.3-17.2,28.7l23.8,30h-27.5
				L922.2,96.1z M931.2,77c14,0,14-20,0-20h-13v20H931.2z"/>
		</g>
	</g>
</g>
</svg>
