<?xml version="1.0" encoding="utf-8"?>
<!-- Generator: Adobe Illustrator 22.0.1, SVG Export Plug-In . SVG Version: 6.00 Build 0)  -->
<svg version="1.1" id="Camada_1" xmlns="http://www.w3.org/2000/svg" xmlns:xlink="http://www.w3.org/1999/xlink" x="0px" y="0px"
	 viewBox="0 0 300 300" style="enable-background:new 0 0 300 300;" xml:space="preserve">
<style type="text/css">
	.st0{fill:#D1D3D4;}
	.st1{fill:#E6E7E8;}
	.st2{fill:#939598;}
	.st3{fill:#BCBEC0;}
	.st4{fill:#B44B14;}
	.st5{fill:#F26522;}
	.st6{fill:#D1581C;}
	.st7{fill:none;stroke:#231F20;stroke-width:1.2583;stroke-linecap:round;stroke-linejoin:round;stroke-miterlimit:10;}
	.st8{fill:url(#SVGID_1_);}
</style>
<g>
	<g>
		<polygon class="st0" points="150.8,171.9 150.4,49.4 153.8,49.3 154.2,171.9 		"/>
		<polygon class="st0" points="42.8,234.8 41.1,231.7 152.5,171.6 154.1,174.7 		"/>
		<rect x="143.7" y="261.9" transform="matrix(0.866 -0.5 0.5 0.866 -104.1445 138.4831)" class="st0" width="125.4" height="3.4"/>
		<rect x="258.7" y="109.8" class="st0" width="3.4" height="124"/>
	</g>
	<path class="st1" d="M152,46.5L37.8,109.1l114.7,62.8l109.6-62.2L152,46.5z M80.9,114.9l71.3-39.3l5.8,3.1l-5.8,3.2v0l-16.8,9.5
		l0,12.5l2.9,1.6l-10.1,6l-0.1,12l24.5,13.9v0.1l22.7-11.4l13.9,7.9l-36.7,20.4L80.9,114.9z"/>
	<g>
		<polygon class="st2" points="179.6,109.6 158.5,97.9 158.4,84.4 179.6,96 		"/>
		<polygon class="st3" points="199.9,97.8 190.2,103.3 179.6,109.5 179.6,96 199.9,84.5 		"/>
		<polygon class="st1" points="199.9,84.5 179.6,96 158.4,84.4 179.6,72.8 		"/>
	</g>
	<polygon class="st4" points="157.7,78.8 152.1,75.8 152,61.8 170.2,71.7 	"/>
	<polygon class="st4" points="137,106.3 135.3,105.4 135.3,91.4 149.5,99.1 	"/>
	<polygon class="st4" points="152.7,137.5 128.2,123.8 128.1,111.5 152.8,125.4 	"/>
	<polygon class="st4" points="189.3,133.9 175.1,126.1 175.1,113.8 199.8,127.7 	"/>
	<polygon class="st5" points="67.8,107.9 152,61.8 152.1,75.9 80.9,114.9 	"/>
	<polygon class="st5" points="152.8,125.4 175.1,113.7 175.1,126.2 152.7,137.5 	"/>
	<polyline class="st6" points="199.5,145.1 180.9,179.6 177,184.8 178.6,216.3 204.1,189 224.3,136.5 223.8,131.4 199.5,145.1 	"/>
	<path class="st7" d="M152,154.2"/>
	<path class="st7" d="M152.8,137.3"/>
	<g>
		<polygon class="st4" points="89.6,88.7 68.4,77.1 68.4,63.5 89.6,75.2 		"/>
		<polygon class="st6" points="109.9,76.9 100.2,82.4 89.6,88.6 89.6,75.2 109.9,63.7 		"/>
		<polygon class="st5" points="109.9,63.7 89.6,75.2 68.4,63.5 89.5,52 		"/>
	</g>
	<g>
		<polygon class="st2" points="151.9,39.8 130.7,28.1 130.7,14.6 151.9,26.2 		"/>
		<polygon class="st3" points="172.1,28 162.5,33.5 151.9,39.6 151.9,26.2 172.1,14.7 		"/>
		<polygon class="st1" points="172.1,14.7 151.9,26.2 130.7,14.6 151.8,3 		"/>
	</g>
	<polygon class="st4" points="66.9,217.5 120.1,246.9 120.1,234.2 78.8,211.4 	"/>
	<polygon class="st5" points="66.9,217.5 66.9,159.5 78.8,165.8 78.8,211.4 	"/>
	<path class="st3" d="M152.5,171.9L37.8,109.1L38,233.8L152.5,297L152.5,171.9z M120.1,246.9l-53.3-29.4v-58l53.3,29.3L120.1,246.9z
		"/>
	<polygon class="st0" points="262.1,227.6 262.1,233.8 232.3,250.8 181.6,229.8 181.8,280 152.5,297 152.5,171.9 180.7,155.9 
		180.7,205.5 219.1,134.1 262.1,109.7 210.8,204.6 	"/>
	<linearGradient id="SVGID_1_" gradientUnits="userSpaceOnUse" x1="37.8058" y1="203.0433" x2="152.4913" y2="203.0433">
		<stop  offset="0" style="stop-color:#D1D3D4"/>
		<stop  offset="0.4847" style="stop-color:#CFD1D2"/>
		<stop  offset="0.6961" style="stop-color:#C8C9CB"/>
		<stop  offset="0.8538" style="stop-color:#BBBDBF"/>
		<stop  offset="0.9848" style="stop-color:#AAACAE"/>
		<stop  offset="1" style="stop-color:#A7A9AC"/>
	</linearGradient>
	<path class="st8" d="M152.5,171.9L37.8,109.1L38,233.8L152.5,297L152.5,171.9z M120.1,246.9l-53.3-29.4v-58l53.3,29.3L120.1,246.9z
		"/>
</g>
</svg>
