<?xml version="1.0" encoding="utf-8"?>
<!-- Generator: Adobe Illustrator 22.0.1, SVG Export Plug-In . SVG Version: 6.00 Build 0)  -->
<svg version="1.1" id="Camada_1" xmlns="http://www.w3.org/2000/svg" xmlns:xlink="http://www.w3.org/1999/xlink" x="0px" y="0px"
	 viewBox="0 0 1366 768" style="enable-background:new 0 0 1366 768;" xml:space="preserve">
<style type="text/css">
	.st0{fill:#F26522;}
	.st1{fill:#A7A9AC;}
	.st2{fill:#D1D3D4;}
	.st3{fill:#E6E7E8;}
	.st4{fill:#939598;}
	.st5{fill:#BCBEC0;}
	.st6{fill:#B44B14;}
	.st7{fill:#D1581C;}
	.st8{fill:none;stroke:#231F20;stroke-width:1.2583;stroke-linecap:round;stroke-linejoin:round;stroke-miterlimit:10;}
	.st9{fill:url(#SVGID_1_);}
</style>
<g>
	<g>
		<g>
			<path class="st0" d="M1316.6,635.3c0,8.3-6.7,15-15.2,15c-8.5,0-15.3-6.6-15.3-15c0-8.3,6.8-14.9,15.4-14.9
				C1309.9,620.4,1316.6,626.9,1316.6,635.3z M1289.9,635.3c0,6.6,5,11.9,11.6,11.9c6.4,0.1,11.3-5.3,11.3-11.8
				c0-6.6-4.9-12-11.5-12C1294.9,623.4,1289.9,628.7,1289.9,635.3z M1299.1,643h-3.4v-14.9c1.4-0.2,3.2-0.5,5.7-0.5
				c2.8,0,4.1,0.5,5.1,1.2c0.9,0.6,1.5,1.7,1.5,3.2c0,1.8-1.4,3-3.1,3.5v0.2c1.5,0.5,2.2,1.6,2.6,3.6c0.5,2.3,0.8,3.1,1.1,3.6h-3.6
				c-0.5-0.5-0.7-1.8-1.2-3.6c-0.3-1.5-1.2-2.3-3.1-2.3h-1.6V643z M1299.1,634.6h1.6c1.9,0,3.4-0.6,3.4-2.2c0-1.3-1-2.3-3.2-2.3
				c-0.9,0-1.6,0.1-1.9,0.2V634.6z"/>
		</g>
		<g>
			<g>
				<path class="st1" d="M49.4,675.7c0-26.3,23.6-39.2,47.3-39.2c23.7,0,47.5,13.1,47.5,39.2v39.1c0,26.2-23.6,39.3-47.3,39.3
					c-23.7,0-47.5-13.1-47.5-39.3V675.7z M78.3,714.7c0,8.4,9.4,12.4,18.6,12.4c9.2,0,18.4-4.2,18.4-12.4v-39.1
					c0-8.9-9.5-12.9-18.9-12.9c-9,0-18.1,4.5-18.1,12.9V714.7z"/>
				<path class="st1" d="M157.2,638h28.9l24.1,55.9l24.2-55.9h28.9v114.3h-29.1l0.2-32.9l1.8-23.1l-1-0.2l-15,39.2h-19.9L185,696.2
					l-0.8,0.2l1.9,23.1v32.9h-28.9V638z"/>
				<path class="st1" d="M278.8,638h27.5l27.6,48.8l9.7,22.9l0.8-0.1c-0.2,0-3.1-19.7-3.2-19.7V638h28.7v114.3h-29.2l-25.8-45.1
					l-10-22.9l-0.8,0.2l3.7,22.1v45.7h-28.9V638z"/>
				<path class="st1" d="M414.2,752.4h-28.9V638h28.9V752.4z"/>
			</g>
			<g>
				<path class="st0" d="M444.9,675.7c0-26.3,23.6-39.2,47.3-39.2c23.7,0,47.5,13.1,47.5,39.2v39.1c0,26.2-23.6,39.3-47.3,39.3
					c-23.7,0-47.5-13.1-47.5-39.3V675.7z M473.8,714.7c0,8.4,9.4,12.4,18.6,12.4c9.2,0,18.4-4.2,18.4-12.4v-39.1
					c0-8.9-9.5-12.9-18.9-12.9c-9.1,0-18.1,4.5-18.1,12.9V714.7z"/>
				<path class="st0" d="M587.2,716H582v36.3h-29.2V638h45.7c23.6,0,41.8,10.8,42.5,37.6c0,21.1-8.6,33.1-22.5,37.5l31.2,39.2h-36
					L587.2,716z M598.9,691.2c18.3,0,18.3-26.2,0-26.2H582v26.2H598.9z"/>
				<path class="st0" d="M712.9,672c-6.3-15.3-31.8-11.8-31.8,3.2v39.3c0,17.9,33.4,17.8,33.4,0v-4.2h-18.3V686h46v28.4
					c0,26.3-22,39.6-44.9,39.6c-22.6,0-45.2-13.3-45.2-39.6v-39.3c0-25.8,22.6-38.8,45.2-38.8c14.9,0,31.8,6.1,39.7,24.4L712.9,672z
					"/>
				<path class="st0" d="M850.8,752.4h-31l-7.4-22.9h-30.5l-7.1,22.9h-31L783.6,638h26.3L850.8,752.4z M805.4,703.8l-7.9-33.4h-0.8
					l-8.4,33.4H805.4z"/>
				<path class="st0" d="M859.1,638h27.5l27.6,48.8l9.7,22.9l0.8-0.1c-0.1,0-3.1-19.7-3.2-19.7V638h28.8v114.3H921l-25.8-45.1
					l-10-22.9l-0.8,0.2l3.7,22.1v45.7h-28.9V638z"/>
				<path class="st0" d="M994.4,752.4h-28.9V638h28.9V752.4z"/>
				<path class="st0" d="M1091.1,638l6.1,9.7l-49.3,78.3l46.5-0.3v26.6h-84.8l-5.3-10.6l49.4-76.9H1008V638H1091.1z"/>
				<path class="st0" d="M1136.9,682.9h46.4v25h-46.4v17.1h50.4v27.3h-79.6V638h79.6v27.1h-50.4V682.9z"/>
				<path class="st0" d="M1235.1,716h-5.2v36.3h-29.2V638h45.7c23.6,0,41.8,10.8,42.5,37.6c0,21.1-8.6,33.1-22.5,37.5l31.2,39.2h-36
					L1235.1,716z M1246.9,691.2c18.3,0,18.3-26.2,0-26.2h-17v26.2H1246.9z"/>
			</g>
		</g>
	</g>
	<g>
		<g>
			<polygon class="st2" points="684.5,352.2 683.8,106.8 690.7,106.8 691.4,352.2 			"/>
			<polygon class="st2" points="468.2,478.2 464.9,472.1 688,351.7 691.3,357.8 			"/>
			
				<rect x="670.3" y="532.5" transform="matrix(0.866 -0.5 0.5 0.866 -161.3319 469.7024)" class="st2" width="251.1" height="6.9"/>
			<polygon class="st2" points="907.3,476.2 900.4,476.2 900.8,227.8 907.7,227.8 			"/>
		</g>
		<path class="st3" d="M687.1,101L458.3,226.5L688,352.2l219.6-124.5L687.1,101z M544.6,238.2l142.7-78.8l11.5,6.2l-11.5,6.5v-0.1
			l-33.6,19.1l0.1,25.1l5.8,3.1l-20.2,12l-0.1,24.1l49.1,27.8v0.1l45.4-22.9l27.9,15.7L688.1,317L544.6,238.2z"/>
		<g>
			<polygon class="st4" points="742.4,227.5 700,204.1 699.9,177 742.4,200.3 			"/>
			<polygon class="st5" points="782.9,203.8 763.6,214.9 742.4,227.2 742.4,200.3 782.9,177.2 			"/>
			<polygon class="st3" points="782.9,177.2 742.4,200.3 699.9,177 742.2,153.8 			"/>
		</g>
		<polygon class="st6" points="698.5,165.9 687.2,159.8 687.1,131.8 723.4,151.6 		"/>
		<polygon class="st6" points="657,220.8 653.6,219 653.5,191 681.9,206.6 		"/>
		<polygon class="st6" points="688.4,283.4 639.3,255.9 639.2,231.3 688.5,259.1 		"/>
		<polygon class="st6" points="761.7,276.2 733.4,260.5 733.3,236 782.7,263.8 		"/>
		<polygon class="st0" points="518.4,224.2 687.1,131.8 687.3,159.9 544.6,238.2 		"/>
		<polygon class="st0" points="688.5,259.1 733.2,235.8 733.4,260.8 688.4,283.4 		"/>
		<polyline class="st7" points="782.2,298.6 744.8,367.7 737.1,378.2 740.4,441.1 791.4,386.4 831.9,281.4 830.9,271.1 782.2,298.6 
					"/>
		<path class="st8" d="M687.1,316.9"/>
		<path class="st8" d="M688.5,282.9"/>
		<g>
			<polygon class="st6" points="562,185.7 519.6,162.3 519.6,135.3 562,158.5 			"/>
			<polygon class="st7" points="602.6,162.1 583.2,173.1 562,185.5 562,158.5 602.6,135.5 			"/>
			<polygon class="st0" points="602.6,135.5 562,158.5 519.6,135.3 561.9,112.1 			"/>
		</g>
		<g>
			<polygon class="st4" points="686.7,87.6 644.4,64.3 644.3,37.2 686.7,60.4 			"/>
			<polygon class="st5" points="727.3,64 707.9,75 686.7,87.4 686.7,60.4 727.3,37.4 			"/>
			<polygon class="st3" points="727.3,37.4 686.7,60.4 644.3,37.2 686.6,14 			"/>
		</g>
		<polygon class="st6" points="516.5,443.7 623.2,502.6 623.2,477.1 540.3,431.3 		"/>
		<polygon class="st0" points="516.5,443.7 516.5,327.4 540.3,340 540.3,431.3 		"/>
		<path class="st5" d="M688,352.2L458.3,226.5l0.4,249.8L688,602.8L688,352.2z M623.2,502.6l-106.7-58.9V327.5l106.8,58.7
			L623.2,502.6z"/>
		<polygon class="st2" points="907.5,463.8 907.5,476.2 847.8,510.3 746.4,468.3 746.7,568.8 688,602.8 688,352.2 744.5,320.3 
			744.4,419.6 821.3,276.5 907.6,227.7 804.8,417.7 		"/>
		<linearGradient id="SVGID_1_" gradientUnits="userSpaceOnUse" x1="458.2941" y1="414.6527" x2="687.9896" y2="414.6527">
			<stop  offset="0" style="stop-color:#D1D3D4"/>
			<stop  offset="0.4847" style="stop-color:#CFD1D2"/>
			<stop  offset="0.6961" style="stop-color:#C8C9CB"/>
			<stop  offset="0.8538" style="stop-color:#BBBDBF"/>
			<stop  offset="0.9848" style="stop-color:#AAACAE"/>
			<stop  offset="1" style="stop-color:#A7A9AC"/>
		</linearGradient>
		<path class="st9" d="M688,352.2L458.3,226.5l0.4,249.8L688,602.8L688,352.2z M623.2,502.6l-106.7-58.9V327.5l106.8,58.7
			L623.2,502.6z"/>
	</g>
</g>
</svg>
