<?xml version="1.0" encoding="iso-8859-1"?>
<!-- Generator: Adobe Illustrator 19.0.0, SVG Export Plug-In . SVG Version: 6.00 Build 0)  -->
<svg version="1.1" id="Capa_1" xmlns="http://www.w3.org/2000/svg" xmlns:xlink="http://www.w3.org/1999/xlink" x="0px" y="0px"
	 viewBox="0 0 512 512" style="enable-background:new 0 0 512 512;" xml:space="preserve">
<g transform="matrix(1.25 0 0 -1.25 0 45)">
	<g>
		<g>
			<path style="fill:#3B88C3;" d="M409.6-328.089c0-25.134-20.378-45.511-45.511-45.511H45.511C20.378-373.6,0-353.222,0-328.089
				V-9.511C0,15.622,20.378,36,45.511,36h318.578C389.222,36,409.6,15.622,409.6-9.511V-328.089z"/>
			<path style="fill:#FFFFFF;" d="M171.349-210.704c0-19.752,12.345-36.693,33.508-36.693c20.116,0,33.519,16.236,33.519,36.693
				c0,18.705-11.287,36.693-33.519,36.693C184.752-174.011,171.349-189.894,171.349-210.704 M116.315-210.704
				c0,53.271,53.976,128.057,89.6,161.223c2.833,2.822,7.066,5.643,11.298,8.465c3.88,2.469,7.76,2.469,10.581,2.469
				c9.876,0,25.054-13.062,25.054-25.759c0-4.927-3.186-9.159-7.418-14.461c-14.108-17.283-37.035-39.856-48.686-56.445l0.705-0.705
				c6.36,2.822,14.461,4.233,22.244,4.233c42.325,0,73.717-37.387,73.717-79.019c0-45.852-36.341-87.484-88.553-87.484
				C150.539-298.188,116.315-257.626,116.315-210.704"/>
		</g>
	</g>
</g>
<g>
</g>
<g>
</g>
<g>
</g>
<g>
</g>
<g>
</g>
<g>
</g>
<g>
</g>
<g>
</g>
<g>
</g>
<g>
</g>
<g>
</g>
<g>
</g>
<g>
</g>
<g>
</g>
<g>
</g>
</svg>
