<?xml version="1.0" encoding="iso-8859-1"?>
<!-- Generator: Adobe Illustrator 19.0.0, SVG Export Plug-In . SVG Version: 6.00 Build 0)  -->
<svg version="1.1" id="Capa_1" xmlns="http://www.w3.org/2000/svg" xmlns:xlink="http://www.w3.org/1999/xlink" x="0px" y="0px"
	 viewBox="0 0 512 512" style="enable-background:new 0 0 512 512;" xml:space="preserve">
<g transform="matrix(1.25 0 0 -1.25 0 45)">
	<g>
		<g>
			<path style="fill:#3B88C3;" d="M409.6-328.089c0-25.134-20.378-45.511-45.511-45.511H45.511C20.378-373.6,0-353.222,0-328.089
				V-9.511C0,15.622,20.378,36,45.511,36h318.578C389.222,36,409.6,15.622,409.6-9.511V-328.089z"/>
			<path style="fill:#FFFFFF;" d="M302.888-66.411c0,14.108-10.581,25.748-25.395,25.748c-9.182,0-17.294-3.88-21.868-10.581
				l-50.813-73.728l-50.79,73.728c-4.597,6.702-12.709,10.581-21.879,10.581c-14.814,0-25.395-11.639-25.395-25.748
				c0-5.643,1.764-11.287,4.938-15.883l58.982-83.001v-95.767c0-18.17,14.723-32.893,32.893-32.893h2.48
				c18.17,0,32.893,14.723,32.893,32.893v95.721l59.017,83.046C301.136-77.698,302.888-72.055,302.888-66.411"/>
		</g>
	</g>
</g>
<g>
</g>
<g>
</g>
<g>
</g>
<g>
</g>
<g>
</g>
<g>
</g>
<g>
</g>
<g>
</g>
<g>
</g>
<g>
</g>
<g>
</g>
<g>
</g>
<g>
</g>
<g>
</g>
<g>
</g>
</svg>
