<?xml version="1.0" encoding="iso-8859-1"?>
<!-- Generator: Adobe Illustrator 19.0.0, SVG Export Plug-In . SVG Version: 6.00 Build 0)  -->
<svg version="1.1" id="Capa_1" xmlns="http://www.w3.org/2000/svg" xmlns:xlink="http://www.w3.org/1999/xlink" x="0px" y="0px"
	 viewBox="0 0 512 512" style="enable-background:new 0 0 512 512;" xml:space="preserve">
<g transform="matrix(1.25 0 0 -1.25 0 45)">
	<g>
		<g>
			<path style="fill:#3B88C3;" d="M409.6-328.089c0-25.134-20.378-45.511-45.511-45.511H45.511C20.378-373.6,0-353.222,0-328.089
				V-9.511C0,15.622,20.378,36,45.511,36h318.578C389.222,36,409.6,15.622,409.6-9.511V-328.089z"/>
			<path style="fill:#FFFFFF;" d="M101.467-79.109c-1.764,4.585-2.469,8.112-2.469,13.05c0,14.814,13.05,25.395,27.159,25.395
				c12.004,0,19.41-7.76,23.984-17.283l54.693-146.751l54.682,146.751c4.574,9.523,11.981,17.283,23.984,17.283
				c14.108,0,27.147-10.581,27.147-25.395c0-4.938-0.683-8.465-2.469-13.05l-77.244-196.494
				c-4.597-11.298-10.581-20.457-26.101-20.457c-15.531,0-21.527,9.159-26.112,20.457L101.467-79.109z"/>
		</g>
	</g>
</g>
<g>
</g>
<g>
</g>
<g>
</g>
<g>
</g>
<g>
</g>
<g>
</g>
<g>
</g>
<g>
</g>
<g>
</g>
<g>
</g>
<g>
</g>
<g>
</g>
<g>
</g>
<g>
</g>
<g>
</g>
</svg>
