<?xml version="1.0" encoding="iso-8859-1"?>
<!-- Generator: Adobe Illustrator 19.0.0, SVG Export Plug-In . SVG Version: 6.00 Build 0)  -->
<svg version="1.1" id="Capa_1" xmlns="http://www.w3.org/2000/svg" xmlns:xlink="http://www.w3.org/1999/xlink" x="0px" y="0px"
	 viewBox="0 0 512 512" style="enable-background:new 0 0 512 512;" xml:space="preserve">
<g transform="matrix(1.25 0 0 -1.25 0 45)">
	<g>
		<g>
			<path style="fill:#3B88C3;" d="M409.6-328.089c0-25.134-20.378-45.511-45.511-45.511H45.511C20.378-373.6,0-353.222,0-328.089
				V-9.511C0,15.622,20.378,36,45.511,36h318.578C389.222,36,409.6,15.622,409.6-9.511V-328.089z"/>
			<path style="fill:#FFFFFF;" d="M179.416-111.922c0-15.883,9.182-26.806,25.395-26.806c16.236,0,25.771,10.923,25.771,26.806
				c0,15.167-9.182,26.806-25.771,26.806C188.234-85.116,179.416-96.756,179.416-111.922 M172.715-214.22
				c0-18,10.581-35.294,32.097-35.294c20.127,0,32.108,17.294,32.108,35.294c0,22.221-12.698,35.271-32.108,35.271
				C184.366-178.949,172.715-194.468,172.715-214.22 M117.68-217.759c0,28.228,15.531,49.038,37.751,61.03
				c-16.577,11.992-26.817,28.228-26.817,50.449c0,41.279,34.224,67.732,76.197,67.732c40.926,0,76.572-26.101,76.572-67.732
				c0-19.752-9.899-39.515-27.182-50.449c23.996-11.992,37.751-33.86,37.751-61.03c0-49.027-39.868-80.43-87.142-80.43
				C156.137-298.188,117.68-265.022,117.68-217.759"/>
		</g>
	</g>
</g>
<g>
</g>
<g>
</g>
<g>
</g>
<g>
</g>
<g>
</g>
<g>
</g>
<g>
</g>
<g>
</g>
<g>
</g>
<g>
</g>
<g>
</g>
<g>
</g>
<g>
</g>
<g>
</g>
<g>
</g>
</svg>
