<?xml version="1.0" encoding="iso-8859-1"?>
<!-- Generator: Adobe Illustrator 19.0.0, SVG Export Plug-In . SVG Version: 6.00 Build 0)  -->
<svg version="1.1" id="Capa_1" xmlns="http://www.w3.org/2000/svg" xmlns:xlink="http://www.w3.org/1999/xlink" x="0px" y="0px"
	 viewBox="0 0 512 512" style="enable-background:new 0 0 512 512;" xml:space="preserve">
<g transform="matrix(1.25 0 0 -1.25 0 45)">
	<g>
		<g>
			<path style="fill:#3B88C3;" d="M409.6-328.089c0-25.134-20.378-45.511-45.511-45.511H45.511C20.378-373.6,0-353.222,0-328.089
				V-9.511C0,15.622,20.378,36,45.511,36h318.578C389.222,36,409.6,15.622,409.6-9.511V-328.089z"/>
			<path style="fill:#FFFFFF;" d="M174.126-159.538l-57.139,77.608c-3.538,4.585-5.655,9.876-5.655,15.531
				c0,15.519,11.639,25.748,26.817,25.748c8.818,0,17.988-5.996,22.926-13.05l43.748-62.089l43.736,62.089
				c4.949,7.054,14.12,13.05,22.926,13.05c15.178,0,26.829-10.229,26.829-25.748c0-5.655-2.116-10.945-5.643-15.531l-57.162-77.608
				l69.848-93.844c2.822-3.88,5.996-10.581,5.996-17.988c0-14.825-11.287-24.69-26.795-24.69c-9.535,0-16.577,4.221-21.879,11.628
				l-57.856,80.441l-57.856-80.441c-5.291-7.407-12.356-11.628-21.879-11.628c-15.519,0-26.806,9.865-26.806,24.69
				c0,7.407,3.174,14.108,5.996,17.988L174.126-159.538z"/>
		</g>
	</g>
</g>
<g>
</g>
<g>
</g>
<g>
</g>
<g>
</g>
<g>
</g>
<g>
</g>
<g>
</g>
<g>
</g>
<g>
</g>
<g>
</g>
<g>
</g>
<g>
</g>
<g>
</g>
<g>
</g>
<g>
</g>
</svg>
