<?xml version="1.0" encoding="iso-8859-1"?>
<!-- Generator: Adobe Illustrator 19.0.0, SVG Export Plug-In . SVG Version: 6.00 Build 0)  -->
<svg version="1.1" id="Capa_1" xmlns="http://www.w3.org/2000/svg" xmlns:xlink="http://www.w3.org/1999/xlink" x="0px" y="0px"
	 viewBox="0 0 512 512" style="enable-background:new 0 0 512 512;" xml:space="preserve">
<g transform="matrix(1.25 0 0 -1.25 0 45)">
	<g>
		<g>
			<path style="fill:#3B88C3;" d="M409.6-328.089c0-25.134-20.378-45.511-45.511-45.511H45.511C20.378-373.6,0-353.222,0-328.089
				V-9.511C0,15.622,20.378,36,45.511,36h318.578C389.222,36,409.6,15.622,409.6-9.511V-328.089z"/>
			<path style="fill:#FFFFFF;" d="M238.33-126.031c0,19.752-12.356,36.693-33.519,36.693c-20.105,0-33.508-16.236-33.508-36.693
				c0-18.705,11.287-36.693,33.508-36.693C224.927-162.724,238.33-146.841,238.33-126.031 M293.365-126.031
				c0-53.271-53.965-128.057-89.611-161.223c-2.822-2.822-7.054-5.643-11.287-8.465c-3.88-2.469-7.76-2.469-10.581-2.469
				c-9.876,0-25.054,13.062-25.054,25.759c0,4.927,3.186,9.159,7.418,14.45c14.108,17.294,37.046,39.868,48.686,56.445l-0.705,0.717
				c-6.36-2.822-14.473-4.233-22.232-4.233c-42.325,0-73.728,37.387-73.728,79.019c0,45.864,36.329,87.484,88.542,87.484
				C259.152-38.547,293.365-79.109,293.365-126.031"/>
		</g>
	</g>
</g>
<g>
</g>
<g>
</g>
<g>
</g>
<g>
</g>
<g>
</g>
<g>
</g>
<g>
</g>
<g>
</g>
<g>
</g>
<g>
</g>
<g>
</g>
<g>
</g>
<g>
</g>
<g>
</g>
<g>
</g>
</svg>
