<?xml version="1.0" encoding="iso-8859-1"?>
<!-- Generator: Adobe Illustrator 19.0.0, SVG Export Plug-In . SVG Version: 6.00 Build 0)  -->
<svg version="1.1" id="Capa_1" xmlns="http://www.w3.org/2000/svg" xmlns:xlink="http://www.w3.org/1999/xlink" x="0px" y="0px"
	 viewBox="0 0 512 512" style="enable-background:new 0 0 512 512;" xml:space="preserve">
<g transform="matrix(1.25 0 0 -1.25 0 45)">
	<g>
		<g>
			<path style="fill:#3B88C3;" d="M409.6-328.089c0-25.134-20.378-45.511-45.511-45.511H45.511C20.378-373.6,0-353.222,0-328.089
				V-9.511C0,15.622,20.378,36,45.511,36h318.578C389.222,36,409.6,15.622,409.6-9.511V-328.089z"/>
			<path style="fill:#FFFFFF;" d="M48.902-75.957c-1.058,4.585-1.411,7.054-1.411,11.992c0,11.287,9.523,23.29,25.042,23.29
				c16.93,0,25.054-9.887,28.228-25.407l29.98-149.925h0.705l45.864,154.51c3.88,12.698,14.473,20.821,27.523,20.821
				c13.05,0,23.632-8.124,27.523-20.821l45.852-154.51h0.694l30.003,149.925c3.152,15.519,11.287,25.407,28.228,25.407
				c15.508,0,25.042-12.004,25.042-23.29c0-4.938-0.364-7.407-1.422-11.992L315.95-268.572
				c-3.527-14.825-15.178-27.511-34.918-27.511c-17.283,0-30.697,11.287-34.918,25.737l-40.937,136.181h-0.694l-40.926-136.181
				c-4.233-14.45-17.647-25.737-34.93-25.737c-19.752,0-31.391,12.686-34.918,27.511L48.902-75.957z"/>
		</g>
	</g>
</g>
<g>
</g>
<g>
</g>
<g>
</g>
<g>
</g>
<g>
</g>
<g>
</g>
<g>
</g>
<g>
</g>
<g>
</g>
<g>
</g>
<g>
</g>
<g>
</g>
<g>
</g>
<g>
</g>
<g>
</g>
</svg>
