<?xml version="1.0" encoding="iso-8859-1"?>
<!-- Generator: Adobe Illustrator 19.0.0, SVG Export Plug-In . SVG Version: 6.00 Build 0)  -->
<svg version="1.1" id="Capa_1" xmlns="http://www.w3.org/2000/svg" xmlns:xlink="http://www.w3.org/1999/xlink" x="0px" y="0px"
	 viewBox="0 0 512 512" style="enable-background:new 0 0 512 512;" xml:space="preserve">
<g transform="matrix(1.25 0 0 -1.25 0 45)">
	<g>
		<g>
			<path style="fill:#3B88C3;" d="M409.6-328.089c0-25.134-20.378-45.511-45.511-45.511H45.511C20.378-373.6,0-353.222,0-328.089
				V-9.511C0,15.622,20.378,36,45.511,36h318.578C389.222,36,409.6,15.622,409.6-9.511V-328.089z"/>
			<path style="fill:#FFFFFF;" d="M112.924-66.764c0,14.461,10.581,26.101,26.453,26.101c15.167,0,26.453-9.876,26.453-26.101
				v-76.197l86.79,92.422c3.891,4.233,10.581,9.876,20.469,9.876c13.392,0,26.112-10.217,26.112-25.395
				c0-9.17-5.643-16.577-17.294-28.217l-66.685-65.627l81.488-85.015c8.465-8.465,14.825-16.225,14.825-26.817
				c0-16.577-13.05-24.326-27.511-24.326c-10.229,0-16.942,5.985-26.817,16.577l-91.375,98.77v-89.953
				c0-13.767-10.57-25.395-26.453-25.395c-15.167,0-26.453,9.865-26.453,25.395L112.924-66.764z"/>
		</g>
	</g>
</g>
<g>
</g>
<g>
</g>
<g>
</g>
<g>
</g>
<g>
</g>
<g>
</g>
<g>
</g>
<g>
</g>
<g>
</g>
<g>
</g>
<g>
</g>
<g>
</g>
<g>
</g>
<g>
</g>
<g>
</g>
</svg>
